<svg width="224" height="144" viewBox="0 0 224 144" fill="none" xmlns="http://www.w3.org/2000/svg">
<rect width="4" height="4" rx="1" fill="#6E7072" fill-opacity="0.75"/>
<rect x="120" width="4" height="4" rx="1" fill="#6E7072" fill-opacity="0.75"/>
<rect y="80" width="4" height="4" rx="1" fill="#6E7072" fill-opacity="0.75"/>
<rect x="120" y="80" width="4" height="4" rx="1" fill="#6E7072" fill-opacity="0.75"/>
<rect x="60" width="4" height="4" rx="1" fill="#6E7072" fill-opacity="0.75"/>
<rect x="180" width="4" height="4" rx="1" fill="#6E7072" fill-opacity="0.75"/>
<rect x="60" y="80" width="4" height="4" rx="1" fill="#6E7072" fill-opacity="0.75"/>
<rect x="180" y="80" width="4" height="4" rx="1" fill="#6E7072" fill-opacity="0.75"/>
<rect y="20" width="4" height="4" rx="1" fill="#6E7072" fill-opacity="0.75"/>
<rect x="120" y="20" width="4" height="4" rx="1" fill="#6E7072" fill-opacity="0.75"/>
<rect y="100" width="4" height="4" rx="1" fill="#6E7072" fill-opacity="0.75"/>
<rect x="120" y="100" width="4" height="4" rx="1" fill="#6E7072" fill-opacity="0.75"/>
<rect x="60" y="20" width="4" height="4" rx="1" fill="#6E7072" fill-opacity="0.75"/>
<rect x="180" y="20" width="4" height="4" rx="1" fill="#6E7072" fill-opacity="0.75"/>
<rect x="60" y="100" width="4" height="4" rx="1" fill="#6E7072" fill-opacity="0.75"/>
<rect x="180" y="100" width="4" height="4" rx="1" fill="#6E7072" fill-opacity="0.75"/>
<rect y="40" width="4" height="4" rx="1" fill="#6E7072" fill-opacity="0.75"/>
<rect x="120" y="40" width="4" height="4" rx="1" fill="#6E7072" fill-opacity="0.75"/>
<rect y="120" width="4" height="4" rx="1" fill="#6E7072" fill-opacity="0.75"/>
<rect x="120" y="120" width="4" height="4" rx="1" fill="#6E7072" fill-opacity="0.75"/>
<rect x="60" y="40" width="4" height="4" rx="1" fill="#6E7072" fill-opacity="0.75"/>
<rect x="180" y="40" width="4" height="4" rx="1" fill="#6E7072" fill-opacity="0.75"/>
<rect x="60" y="120" width="4" height="4" rx="1" fill="#6E7072" fill-opacity="0.75"/>
<rect x="180" y="120" width="4" height="4" rx="1" fill="#6E7072" fill-opacity="0.75"/>
<rect x="20" y="40" width="4" height="4" rx="1" fill="#6E7072" fill-opacity="0.75"/>
<rect x="140" y="40" width="4" height="4" rx="1" fill="#6E7072" fill-opacity="0.75"/>
<rect x="20" y="120" width="4" height="4" rx="1" fill="#6E7072" fill-opacity="0.75"/>
<rect x="140" y="120" width="4" height="4" rx="1" fill="#6E7072" fill-opacity="0.75"/>
<rect x="80" y="40" width="4" height="4" rx="1" fill="#6E7072" fill-opacity="0.75"/>
<rect x="200" y="40" width="4" height="4" rx="1" fill="#6E7072" fill-opacity="0.75"/>
<rect x="80" y="120" width="4" height="4" rx="1" fill="#6E7072" fill-opacity="0.75"/>
<rect x="200" y="120" width="4" height="4" rx="1" fill="#6E7072" fill-opacity="0.75"/>
<rect x="40" y="40" width="4" height="4" rx="1" fill="#6E7072" fill-opacity="0.75"/>
<rect x="160" y="40" width="4" height="4" rx="1" fill="#6E7072" fill-opacity="0.75"/>
<rect x="40" y="120" width="4" height="4" rx="1" fill="#6E7072" fill-opacity="0.75"/>
<rect x="160" y="120" width="4" height="4" rx="1" fill="#6E7072" fill-opacity="0.75"/>
<rect x="100" y="40" width="4" height="4" rx="1" fill="#6E7072" fill-opacity="0.75"/>
<rect x="220" y="40" width="4" height="4" rx="1" fill="#6E7072" fill-opacity="0.75"/>
<rect x="100" y="120" width="4" height="4" rx="1" fill="#6E7072" fill-opacity="0.75"/>
<rect x="220" y="120" width="4" height="4" rx="1" fill="#6E7072" fill-opacity="0.75"/>
<rect y="60" width="4" height="4" rx="1" fill="#6E7072" fill-opacity="0.75"/>
<rect x="120" y="60" width="4" height="4" rx="1" fill="#6E7072" fill-opacity="0.75"/>
<rect y="140" width="4" height="4" rx="1" fill="#6E7072" fill-opacity="0.75"/>
<rect x="120" y="140" width="4" height="4" rx="1" fill="#6E7072" fill-opacity="0.75"/>
<rect x="60" y="60" width="4" height="4" rx="1" fill="#6E7072" fill-opacity="0.75"/>
<rect x="180" y="60" width="4" height="4" rx="1" fill="#6E7072" fill-opacity="0.75"/>
<rect x="60" y="140" width="4" height="4" rx="1" fill="#6E7072" fill-opacity="0.75"/>
<rect x="180" y="140" width="4" height="4" rx="1" fill="#6E7072" fill-opacity="0.75"/>
<rect x="20" y="60" width="4" height="4" rx="1" fill="#6E7072" fill-opacity="0.75"/>
<rect x="140" y="60" width="4" height="4" rx="1" fill="#6E7072" fill-opacity="0.75"/>
<rect x="20" y="140" width="4" height="4" rx="1" fill="#6E7072" fill-opacity="0.75"/>
<rect x="140" y="140" width="4" height="4" rx="1" fill="#6E7072" fill-opacity="0.75"/>
<rect x="80" y="60" width="4" height="4" rx="1" fill="#6E7072" fill-opacity="0.75"/>
<rect x="200" y="60" width="4" height="4" rx="1" fill="#6E7072" fill-opacity="0.75"/>
<rect x="80" y="140" width="4" height="4" rx="1" fill="#6E7072" fill-opacity="0.75"/>
<rect x="200" y="140" width="4" height="4" rx="1" fill="#6E7072" fill-opacity="0.75"/>
<rect x="40" y="60" width="4" height="4" rx="1" fill="#6E7072" fill-opacity="0.75"/>
<rect x="160" y="60" width="4" height="4" rx="1" fill="#6E7072" fill-opacity="0.75"/>
<rect x="40" y="140" width="4" height="4" rx="1" fill="#6E7072" fill-opacity="0.75"/>
<rect x="160" y="140" width="4" height="4" rx="1" fill="#6E7072" fill-opacity="0.75"/>
<rect x="100" y="60" width="4" height="4" rx="1" fill="#6E7072" fill-opacity="0.75"/>
<rect x="220" y="60" width="4" height="4" rx="1" fill="#6E7072" fill-opacity="0.75"/>
<rect x="100" y="140" width="4" height="4" rx="1" fill="#6E7072" fill-opacity="0.75"/>
<rect x="220" y="140" width="4" height="4" rx="1" fill="#6E7072" fill-opacity="0.75"/>
<rect x="20" y="20" width="4" height="4" rx="1" fill="#6E7072" fill-opacity="0.75"/>
<rect x="140" y="20" width="4" height="4" rx="1" fill="#6E7072" fill-opacity="0.75"/>
<rect x="20" y="100" width="4" height="4" rx="1" fill="#6E7072" fill-opacity="0.75"/>
<rect x="140" y="100" width="4" height="4" rx="1" fill="#6E7072" fill-opacity="0.75"/>
<rect x="80" y="20" width="4" height="4" rx="1" fill="#6E7072" fill-opacity="0.75"/>
<rect x="200" y="20" width="4" height="4" rx="1" fill="#6E7072" fill-opacity="0.75"/>
<rect x="80" y="100" width="4" height="4" rx="1" fill="#6E7072" fill-opacity="0.75"/>
<rect x="200" y="100" width="4" height="4" rx="1" fill="#6E7072" fill-opacity="0.75"/>
<rect x="40" y="20" width="4" height="4" rx="1" fill="#6E7072" fill-opacity="0.75"/>
<rect x="160" y="20" width="4" height="4" rx="1" fill="#6E7072" fill-opacity="0.75"/>
<rect x="40" y="100" width="4" height="4" rx="1" fill="#6E7072" fill-opacity="0.75"/>
<rect x="160" y="100" width="4" height="4" rx="1" fill="#6E7072" fill-opacity="0.75"/>
<rect x="100" y="20" width="4" height="4" rx="1" fill="#6E7072" fill-opacity="0.75"/>
<rect x="220" y="20" width="4" height="4" rx="1" fill="#6E7072" fill-opacity="0.75"/>
<rect x="100" y="100" width="4" height="4" rx="1" fill="#6E7072" fill-opacity="0.75"/>
<rect x="220" y="100" width="4" height="4" rx="1" fill="#6E7072" fill-opacity="0.75"/>
<rect x="20" width="4" height="4" rx="1" fill="#6E7072" fill-opacity="0.75"/>
<rect x="140" width="4" height="4" rx="1" fill="#6E7072" fill-opacity="0.75"/>
<rect x="20" y="80" width="4" height="4" rx="1" fill="#6E7072" fill-opacity="0.75"/>
<rect x="140" y="80" width="4" height="4" rx="1" fill="#6E7072" fill-opacity="0.75"/>
<rect x="80" width="4" height="4" rx="1" fill="#6E7072" fill-opacity="0.75"/>
<rect x="200" width="4" height="4" rx="1" fill="#6E7072" fill-opacity="0.75"/>
<rect x="80" y="80" width="4" height="4" rx="1" fill="#6E7072" fill-opacity="0.75"/>
<rect x="200" y="80" width="4" height="4" rx="1" fill="#6E7072" fill-opacity="0.75"/>
<rect x="40" width="4" height="4" rx="1" fill="#6E7072" fill-opacity="0.75"/>
<rect x="160" width="4" height="4" rx="1" fill="#6E7072" fill-opacity="0.75"/>
<rect x="40" y="80" width="4" height="4" rx="1" fill="#6E7072" fill-opacity="0.75"/>
<rect x="160" y="80" width="4" height="4" rx="1" fill="#6E7072" fill-opacity="0.75"/>
<rect x="100" width="4" height="4" rx="1" fill="#6E7072" fill-opacity="0.75"/>
<rect x="220" width="4" height="4" rx="1" fill="#6E7072" fill-opacity="0.75"/>
<rect x="100" y="80" width="4" height="4" rx="1" fill="#6E7072" fill-opacity="0.75"/>
<rect x="220" y="80" width="4" height="4" rx="1" fill="#6E7072" fill-opacity="0.75"/>
</svg>
