<svg width="452" height="448" viewBox="0 0 452 448" fill="none" xmlns="http://www.w3.org/2000/svg">
<g clip-path="url(#clip0_177_727)" filter="url(#filter0_d_177_727)">
<g filter="url(#filter1_b_177_727)">
<path d="M4 46.4798C4 38.2598 10.2287 31.3771 18.4079 30.5592L306.408 1.75921C315.827 0.817311 324 8.21385 324 17.6798V305.52C324 313.74 317.771 320.623 309.592 321.441L21.5921 350.241C12.1731 351.183 4 343.786 4 334.32V46.4798Z" fill="url(#paint0_linear_177_727)" fill-opacity="0.75"/>
<path d="M4.5 46.4798C4.5 38.5166 10.5341 31.8491 18.4577 31.0567L306.458 2.25673C315.582 1.34426 323.5 8.50966 323.5 17.6798V305.52C323.5 313.483 317.466 320.151 309.542 320.943L21.5423 349.743C12.4177 350.656 4.5 343.49 4.5 334.32V46.4798Z" stroke="url(#paint1_linear_177_727)" stroke-opacity="0.75"/>
</g>
<path d="M20 74.1603C20 70.084 23.0651 66.6594 27.1165 66.2093L299.117 35.987C303.855 35.4605 308 39.17 308 43.9381V91.8397C308 95.916 304.935 99.3406 300.883 99.7907L28.8834 130.013C24.1445 130.539 20 126.83 20 122.062V74.1603Z" fill="url(#paint2_linear_177_727)" fill-opacity="0.75"/>
<path d="M20 226.16C20 222.084 23.0651 218.659 27.1165 218.209L299.117 187.987C303.855 187.461 308 191.17 308 195.938V243.84C308 247.916 304.935 251.341 300.883 251.791L28.8834 282.013C24.1445 282.539 20 278.83 20 274.062V226.16Z" fill="url(#paint3_linear_177_727)" fill-opacity="0.75"/>
<path d="M20 144.37C20 141.313 22.2988 138.745 25.3374 138.407L301.337 107.74C304.892 107.345 308 110.128 308 113.704V117.63C308 120.687 305.701 123.255 302.663 123.593L26.6626 154.26C23.1084 154.655 20 151.872 20 148.296V144.37Z" fill="url(#paint4_linear_177_727)" fill-opacity="0.75"/>
<path d="M20 168.378C20 165.317 22.3035 162.747 25.3458 162.414L209.346 142.23C212.897 141.84 216 144.621 216 148.194V152.122C216 155.183 213.697 157.753 210.654 158.086L26.6542 178.27C23.1028 178.66 20 175.879 20 172.306V168.378Z" fill="url(#paint5_linear_177_727)" fill-opacity="0.75"/>
<path d="M20 296.378C20 293.317 22.3035 290.747 25.3458 290.414L209.346 270.23C212.897 269.84 216 272.621 216 276.194V280.122C216 283.183 213.697 285.753 210.654 286.086L26.6542 306.27C23.1028 306.66 20 303.879 20 300.306V296.378Z" fill="url(#paint6_linear_177_727)" fill-opacity="0.75"/>
<path d="M20 192.363C20 189.309 22.2942 186.742 25.3292 186.4L173.329 169.75C176.886 169.35 180 172.133 180 175.713V179.637C180 182.691 177.706 185.258 174.671 185.6L26.6708 202.25C23.1138 202.65 20 199.867 20 196.287V192.363Z" fill="url(#paint7_linear_177_727)" fill-opacity="0.75"/>
<path d="M20 320.363C20 317.309 22.2942 314.742 25.3292 314.4L173.329 297.75C176.886 297.35 180 300.133 180 303.713V307.637C180 310.691 177.706 313.258 174.671 313.6L26.6708 330.25C23.1138 330.65 20 327.867 20 324.287V320.363Z" fill="url(#paint8_linear_177_727)" fill-opacity="0.75"/>
<path d="M29.8141 54.0291L28.8583 52.5127L24.2756 52.9944L23.656 54.6763L21.1021 54.9448L24.5442 46.1367L27.2056 45.857L32.4038 53.7569L29.8141 54.0291ZM24.9291 51.1761L27.8291 50.8713L26.074 48.0634L24.9291 51.1761ZM40.2937 48.5235C41.6153 48.4691 42.7621 49.0484 42.8976 50.3373C43.0494 51.7813 41.8376 52.7654 39.7849 52.9811L33.3284 53.6597L32.4504 45.3057L38.4295 44.6773C40.4822 44.4616 41.8696 45.1483 42.01 46.4849C42.1091 47.4277 41.5393 48.3202 40.2937 48.5235ZM35.0392 46.747L35.2111 48.382L38.3737 48.0496C39.1852 47.9643 39.7034 47.7289 39.6357 47.0844C39.5692 46.4519 39.0134 46.3293 38.2018 46.4146L35.0392 46.747ZM39.0936 51.3404C39.9529 51.2501 40.4447 50.9933 40.3732 50.313C40.3017 49.6327 39.7685 49.4957 38.9092 49.5861L35.3767 49.9573L35.5611 51.7117L39.0936 51.3404ZM49.5686 52.2303C46.2628 52.5778 43.956 51.1792 43.6587 48.3508C43.3614 45.5224 45.3271 43.6748 48.6329 43.3274C51.9386 42.9799 54.2574 44.3772 54.5547 47.2056C54.852 50.034 52.8744 51.8829 49.5686 52.2303ZM49.3604 50.2492C51.1983 50.0561 52.2379 49.0418 52.0724 47.4665C51.9068 45.8912 50.679 45.1153 48.8411 45.3085C47.0151 45.5004 45.9635 46.5159 46.1291 48.0912C46.2947 49.6665 47.5225 50.4424 49.3604 50.2492ZM62.7211 42.1242L65.1557 41.8683L65.6198 46.2839C65.887 48.8259 64.3321 50.6786 61.2173 51.006C58.1024 51.3334 56.1844 49.8457 55.9172 47.3037L55.4531 42.888L57.8877 42.6322L58.3318 46.8569C58.4848 48.3129 59.3954 49.1704 61.0065 49.001C62.6177 48.8317 63.3182 47.8049 63.1651 46.3489L62.7211 42.1242ZM75.54 40.7768L75.7445 42.7221L72.2716 43.0871L72.9452 49.4958L70.5106 49.7517L69.837 43.343L66.388 43.7055L66.1835 41.7602L75.54 40.7768ZM88.4392 39.4211L91.0289 39.1489L91.9069 47.5029L89.4843 47.7575L88.9236 42.4229L86.0229 46.8544L85.9036 46.8669L82.1449 43.1353L82.7056 48.47L80.3546 48.7171L79.4765 40.3631L82.1379 40.0834L85.698 43.7634L88.4392 39.4211ZM96.0653 45.1835L102.581 44.4986L102.777 46.3604L93.8622 47.2974L92.9842 38.9434L101.768 38.0202L101.963 39.8819L95.5786 40.553L95.7229 41.9254L100.986 41.3723L101.173 43.1505L95.9098 43.7036L96.0653 45.1835Z" fill="#F9FBFD" fill-opacity="0.75"/>
<g filter="url(#filter2_b_177_727)">
<path d="M36 78.4798C36 70.2598 42.2287 63.3771 50.4079 62.5592L338.408 33.7592C347.827 32.8173 356 40.2139 356 49.6798V337.52C356 345.74 349.771 352.623 341.592 353.441L53.5921 382.241C44.1731 383.183 36 375.786 36 366.32V78.4798Z" fill="url(#paint9_linear_177_727)" fill-opacity="0.75"/>
<path d="M36.5 78.4798C36.5 70.5166 42.5341 63.8491 50.4577 63.0567L338.458 34.2567C347.582 33.3443 355.5 40.5097 355.5 49.6798V337.52C355.5 345.483 349.466 352.151 341.542 352.943L53.5423 381.743C44.4177 382.656 36.5 375.49 36.5 366.32V78.4798Z" stroke="url(#paint10_linear_177_727)" stroke-opacity="0.75"/>
</g>
<path d="M52 106.16C52 102.084 55.0651 98.6594 59.1165 98.2093L331.117 67.987C335.855 67.4605 340 71.17 340 75.9381V123.84C340 127.916 336.935 131.341 332.883 131.791L60.8834 162.013C56.1445 162.539 52 158.83 52 154.062V106.16Z" fill="url(#paint11_linear_177_727)" fill-opacity="0.75"/>
<path d="M52 258.16C52 254.084 55.0651 250.659 59.1165 250.209L331.117 219.987C335.855 219.461 340 223.17 340 227.938V275.84C340 279.916 336.935 283.341 332.883 283.791L60.8834 314.013C56.1445 314.539 52 310.83 52 306.062V258.16Z" fill="url(#paint12_linear_177_727)" fill-opacity="0.75"/>
<path d="M52 176.37C52 173.313 54.2988 170.745 57.3374 170.407L333.337 139.74C336.892 139.345 340 142.128 340 145.704V149.63C340 152.687 337.701 155.255 334.663 155.593L58.6626 186.26C55.1084 186.655 52 183.872 52 180.296V176.37Z" fill="url(#paint13_linear_177_727)" fill-opacity="0.75"/>
<path d="M52 200.378C52 197.317 54.3035 194.747 57.3458 194.414L241.346 174.23C244.897 173.84 248 176.621 248 180.194V184.122C248 187.183 245.697 189.753 242.654 190.086L58.6542 210.27C55.1028 210.66 52 207.879 52 204.306V200.378Z" fill="url(#paint14_linear_177_727)" fill-opacity="0.75"/>
<path d="M52 328.378C52 325.317 54.3035 322.747 57.3458 322.414L241.346 302.23C244.897 301.84 248 304.621 248 308.194V312.122C248 315.183 245.697 317.753 242.654 318.086L58.6542 338.27C55.1028 338.66 52 335.879 52 332.306V328.378Z" fill="url(#paint15_linear_177_727)" fill-opacity="0.75"/>
<path d="M52 224.363C52 221.309 54.2942 218.742 57.3292 218.4L205.329 201.75C208.886 201.35 212 204.133 212 207.713V211.637C212 214.691 209.706 217.258 206.671 217.6L58.6708 234.25C55.1138 234.65 52 231.867 52 228.287V224.363Z" fill="url(#paint16_linear_177_727)" fill-opacity="0.75"/>
<path d="M52 352.363C52 349.309 54.2942 346.742 57.3292 346.4L205.329 329.75C208.886 329.35 212 332.133 212 335.713V339.637C212 342.691 209.706 345.258 206.671 345.6L58.6708 362.25C55.1138 362.65 52 359.867 52 356.287V352.363Z" fill="url(#paint17_linear_177_727)" fill-opacity="0.75"/>
<path d="M59.0504 77.8733C61.3299 77.6337 62.9509 78.4769 63.1528 80.3983C63.3573 82.3436 61.9445 83.4815 59.6651 83.7211L56.2996 84.0748L56.563 86.581L54.1284 86.8369L53.2504 78.4829L59.0504 77.8733ZM59.2765 81.9761C60.1835 81.8808 60.7753 81.5411 60.6875 80.7057C60.5984 79.8584 59.949 79.6491 59.042 79.7444L55.8794 80.0768L56.114 82.3085L59.2765 81.9761ZM74.9195 84.6517L72.0911 84.9489L69.606 82.5435L67.1476 82.8019L67.4248 85.4394L65.0021 85.694L64.1241 77.34L69.9838 76.7241C72.12 76.4996 73.878 77.2681 74.0787 79.1776C74.2254 80.5739 73.4351 81.5498 72.1625 82.0697L74.9195 84.6517ZM66.95 81.0369L70.22 80.6932C71.0912 80.6016 71.6986 80.2965 71.6133 79.4849C71.528 78.6734 70.8704 78.5012 69.9992 78.5928L66.7292 78.9365L66.95 81.0369ZM81.1141 84.2781C77.8083 84.6256 75.5015 83.227 75.2042 80.3986C74.9069 77.5702 76.8725 75.7226 80.1783 75.3751C83.4841 75.0277 85.8029 76.425 86.1002 79.2534C86.3974 82.0818 84.4199 83.9306 81.1141 84.2781ZM80.9058 82.297C82.7437 82.1038 83.7834 81.0896 83.6178 79.5143C83.4523 77.939 82.2244 77.1631 80.3866 77.3562C78.5606 77.5481 77.509 78.5636 77.6746 80.139C77.8401 81.7143 79.068 82.4902 80.9058 82.297ZM88.066 80.555C88.6469 81.1455 89.2643 81.3944 90.1952 81.2965C91.6392 81.1448 92.1017 80.2636 91.9637 78.9508L91.4921 74.4635L93.9266 74.2077L94.4183 78.8859C94.6617 81.2011 93.3417 82.9929 90.4298 83.299C88.6993 83.4809 87.4815 83.0297 86.5803 82.147L88.066 80.555ZM98.8124 80.2581L105.328 79.5732L105.524 81.435L96.6093 82.372L95.7312 74.018L104.515 73.0948L104.711 74.9565L98.3257 75.6276L98.4699 77L103.733 76.4469L103.92 78.2251L98.6568 78.7783L98.8124 80.2581ZM111.485 79.083C112.607 78.9651 113.426 78.4929 113.917 77.5364L116.118 78.391C115.471 79.7017 113.889 80.8333 111.633 81.0704C108.483 81.4015 106.187 79.9898 105.891 77.1733C105.595 74.3568 107.547 72.4986 110.793 72.1574C112.953 71.9304 114.727 72.7334 115.604 73.8478L113.617 75.1426C112.977 74.341 112.087 74.0243 110.966 74.1422C109.247 74.3229 108.193 75.3145 108.361 76.9137C108.529 78.5129 109.766 79.2637 111.485 79.083ZM125.22 70.9186L125.424 72.8639L121.952 73.2289L122.625 79.6376L120.191 79.8935L119.517 73.4848L116.068 73.8473L115.863 71.902L125.22 70.9186ZM131.099 73.3896C133.856 73.3291 135.846 73.6629 136.048 75.5844C136.228 77.3029 134.764 78.6393 131.732 78.9579C129.584 79.1837 127.721 78.7883 126.298 77.8761L127.417 76.2381C128.495 76.9694 129.916 77.2906 131.587 77.115C133.019 76.9645 133.708 76.6267 133.65 76.0777C133.593 75.5406 132.906 75.4319 131.173 75.4693C128.668 75.5154 126.355 75.2035 126.159 73.3417C125.971 71.5516 127.801 70.3698 130.451 70.0913C132.241 69.9032 133.933 70.1597 135.164 70.8508L134.094 72.4956C133.094 71.9371 131.945 71.7925 130.643 71.9172C129.664 72.0201 128.499 72.2994 128.562 72.8961C128.62 73.4571 129.595 73.4271 131.099 73.3896Z" fill="#F9FBFD" fill-opacity="0.75"/>
<g filter="url(#filter3_b_177_727)">
<path d="M68 110.48C68 102.26 74.2287 95.3771 82.4079 94.5592L370.408 65.7592C379.827 64.8173 388 72.2139 388 81.6798V369.52C388 377.74 381.771 384.623 373.592 385.441L85.5921 414.241C76.1731 415.183 68 407.786 68 398.32V110.48Z" fill="url(#paint18_linear_177_727)" fill-opacity="0.75"/>
<path d="M68.5 110.48C68.5 102.517 74.5341 95.8491 82.4577 95.0567L370.458 66.2567C379.582 65.3443 387.5 72.5097 387.5 81.6798V369.52C387.5 377.483 381.466 384.151 373.542 384.943L85.5423 413.743C76.4177 414.656 68.5 407.49 68.5 398.32V110.48Z" stroke="url(#paint19_linear_177_727)" stroke-opacity="0.75"/>
</g>
<path d="M84 139.16C84 135.084 87.0651 131.659 91.1165 131.209L363.117 100.987C367.855 100.461 372 104.17 372 108.938V156.84C372 160.916 368.935 164.341 364.883 164.791L92.8834 195.013C88.1445 195.539 84 191.83 84 187.062V139.16Z" fill="url(#paint20_linear_177_727)" fill-opacity="0.75"/>
<path d="M84 291.16C84 287.084 87.0651 283.659 91.1165 283.209L363.117 252.987C367.855 252.461 372 256.17 372 260.938V308.84C372 312.916 368.935 316.341 364.883 316.791L92.8834 347.013C88.1445 347.539 84 343.83 84 339.062V291.16Z" fill="url(#paint21_linear_177_727)" fill-opacity="0.75"/>
<path d="M84 209.37C84 206.313 86.2988 203.745 89.3374 203.407L365.337 172.74C368.892 172.345 372 175.128 372 178.704V182.63C372 185.687 369.701 188.255 366.663 188.593L90.6626 219.26C87.1084 219.655 84 216.872 84 213.296V209.37Z" fill="url(#paint22_linear_177_727)" fill-opacity="0.75"/>
<path d="M84 233.378C84 230.317 86.3035 227.747 89.3458 227.414L273.346 207.23C276.897 206.84 280 209.621 280 213.194V217.122C280 220.183 277.697 222.753 274.654 223.086L90.6542 243.27C87.1028 243.66 84 240.879 84 237.306V233.378Z" fill="url(#paint23_linear_177_727)" fill-opacity="0.75"/>
<path d="M84 361.378C84 358.317 86.3035 355.747 89.3458 355.414L273.346 335.23C276.897 334.84 280 337.621 280 341.194V345.122C280 348.183 277.697 350.753 274.654 351.086L90.6542 371.27C87.1028 371.66 84 368.879 84 365.306V361.378Z" fill="url(#paint24_linear_177_727)" fill-opacity="0.75"/>
<path d="M84 257.363C84 254.309 86.2942 251.742 89.3292 251.4L237.329 234.75C240.886 234.35 244 237.133 244 240.713V244.637C244 247.691 241.706 250.258 238.671 250.6L90.6708 267.25C87.1138 267.65 84 264.867 84 261.287V257.363Z" fill="url(#paint25_linear_177_727)" fill-opacity="0.75"/>
<path d="M84 385.363C84 382.309 86.2942 379.742 89.3292 379.4L237.329 362.75C240.886 362.35 244 365.133 244 368.713V372.637C244 375.691 241.706 378.258 238.671 378.6L90.6708 395.25C87.1138 395.65 84 392.867 84 389.287V385.363Z" fill="url(#paint26_linear_177_727)" fill-opacity="0.75"/>
<path d="M94.0221 109.561L94.1826 111.089L88.9628 116.645L94.8941 116.021L95.0911 117.895L85.6033 118.892L85.4428 117.364L90.6745 111.807L85.137 112.389L84.9401 110.516L94.0221 109.561ZM103.2 108.596L105.551 108.349L106.429 116.703L104.293 116.928L98.3216 112.005L98.8986 117.495L96.5476 117.742L95.6696 109.388L98.2474 109.117L103.737 113.704L103.2 108.596ZM117.726 110.629L118.069 113.887C117.29 115.091 115.721 116.004 113.49 116.239C110.064 116.599 107.77 115.199 107.472 112.37C107.175 109.542 109.129 107.696 112.554 107.336C114.618 107.119 116.187 107.69 117.143 108.41L115.503 109.91C114.719 109.34 113.937 109.133 112.815 109.251C110.787 109.464 109.771 110.476 109.943 112.111C110.116 113.758 111.355 114.532 113.384 114.319C114.411 114.211 115.201 113.923 115.729 113.325L115.65 112.573L112.881 112.864L112.702 111.157L117.726 110.629ZM129.704 114.257L126.876 114.554L124.391 112.149L121.932 112.407L122.209 115.045L119.787 115.299L118.909 106.945L124.768 106.329C126.905 106.105 128.663 106.873 128.863 108.783C129.01 110.179 128.22 111.155 126.947 111.675L129.704 114.257ZM121.735 110.642L125.005 110.298C125.876 110.207 126.483 109.902 126.398 109.09C126.313 108.279 125.655 108.106 124.784 108.198L121.514 108.542L121.735 110.642ZM137.91 104.948C141.12 104.611 143.324 105.948 143.6 108.573C143.876 111.199 141.998 112.965 138.788 113.302L134.122 113.793L133.244 105.439L137.91 104.948ZM138.394 111.389C140.184 111.201 141.273 110.314 141.118 108.834C140.962 107.354 139.713 106.713 137.922 106.902L135.882 107.116L136.353 111.603L138.394 111.389ZM142.905 104.423L145.626 104.137L148.439 107.485L150.483 103.627L153.192 103.342L149.848 109.292L150.144 112.109L147.709 112.364L147.413 109.548L142.905 104.423ZM161.648 102.453L163.999 102.206L164.877 110.56L162.741 110.785L156.769 105.862L157.346 111.352L154.995 111.599L154.117 103.245L156.695 102.974L162.185 107.561L161.648 102.453ZM174.522 109.546L173.566 108.03L168.983 108.512L168.364 110.194L165.81 110.462L169.252 101.654L171.913 101.374L177.112 109.274L174.522 109.546ZM169.637 106.693L172.537 106.389L170.782 103.581L169.637 106.693ZM186.121 99.881L188.711 99.6088L189.589 107.963L187.166 108.217L186.605 102.883L183.705 107.314L183.585 107.327L179.827 103.595L180.387 108.93L178.036 109.177L177.158 100.823L179.82 100.543L183.38 104.223L186.121 99.881ZM193.978 107.501L191.544 107.757L190.666 99.4033L193.1 99.1474L193.978 107.501ZM200.627 105.077C201.749 104.959 202.568 104.487 203.059 103.53L205.26 104.385C204.614 105.696 203.031 106.827 200.776 107.064C197.625 107.396 195.329 105.984 195.033 103.167C194.737 100.351 196.689 98.4927 199.935 98.1515C202.096 97.9245 203.869 98.7275 204.746 99.8419L202.759 101.137C202.12 100.335 201.23 100.018 200.108 100.136C198.389 100.317 197.335 101.309 197.503 102.908C197.671 104.507 198.909 105.258 200.627 105.077ZM210.65 100.392C213.406 100.331 215.396 100.665 215.598 102.587C215.779 104.305 214.314 105.642 211.283 105.96C209.135 106.186 207.271 105.791 205.848 104.878L206.967 103.24C208.045 103.972 209.467 104.293 211.138 104.117C212.57 103.967 213.258 103.629 213.201 103.08C213.144 102.543 212.457 102.434 210.723 102.472C208.218 102.518 205.905 102.206 205.709 100.344C205.521 98.5538 207.352 97.372 210.001 97.0935C211.791 96.9054 213.483 97.1619 214.714 97.853L213.645 99.4979C212.645 98.9393 211.495 98.7947 210.193 98.9195C209.215 99.0223 208.049 99.3017 208.112 99.8984C208.171 100.459 209.145 100.429 210.65 100.392Z" fill="#F9FBFD" fill-opacity="0.75"/>
</g>
<defs>
<filter id="filter0_d_177_727" x="0" y="0" width="456" height="456" filterUnits="userSpaceOnUse" color-interpolation-filters="sRGB">
<feFlood flood-opacity="0" result="BackgroundImageFix"/>
<feColorMatrix in="SourceAlpha" type="matrix" values="0 0 0 0 0 0 0 0 0 0 0 0 0 0 0 0 0 0 127 0" result="hardAlpha"/>
<feOffset dy="4"/>
<feGaussianBlur stdDeviation="2"/>
<feComposite in2="hardAlpha" operator="out"/>
<feColorMatrix type="matrix" values="0 0 0 0 0 0 0 0 0 0 0 0 0 0 0 0 0 0 0.25 0"/>
<feBlend mode="normal" in2="BackgroundImageFix" result="effect1_dropShadow_177_727"/>
<feBlend mode="normal" in="SourceGraphic" in2="effect1_dropShadow_177_727" result="shape"/>
</filter>
<filter id="filter1_b_177_727" x="-12" y="-14.3217" width="352" height="380.643" filterUnits="userSpaceOnUse" color-interpolation-filters="sRGB">
<feFlood flood-opacity="0" result="BackgroundImageFix"/>
<feGaussianBlur in="BackgroundImageFix" stdDeviation="8"/>
<feComposite in2="SourceAlpha" operator="in" result="effect1_backgroundBlur_177_727"/>
<feBlend mode="normal" in="SourceGraphic" in2="effect1_backgroundBlur_177_727" result="shape"/>
</filter>
<filter id="filter2_b_177_727" x="20" y="17.6783" width="352" height="380.643" filterUnits="userSpaceOnUse" color-interpolation-filters="sRGB">
<feFlood flood-opacity="0" result="BackgroundImageFix"/>
<feGaussianBlur in="BackgroundImageFix" stdDeviation="8"/>
<feComposite in2="SourceAlpha" operator="in" result="effect1_backgroundBlur_177_727"/>
<feBlend mode="normal" in="SourceGraphic" in2="effect1_backgroundBlur_177_727" result="shape"/>
</filter>
<filter id="filter3_b_177_727" x="52" y="49.6783" width="352" height="380.643" filterUnits="userSpaceOnUse" color-interpolation-filters="sRGB">
<feFlood flood-opacity="0" result="BackgroundImageFix"/>
<feGaussianBlur in="BackgroundImageFix" stdDeviation="8"/>
<feComposite in2="SourceAlpha" operator="in" result="effect1_backgroundBlur_177_727"/>
<feBlend mode="normal" in="SourceGraphic" in2="effect1_backgroundBlur_177_727" result="shape"/>
</filter>
<linearGradient id="paint0_linear_177_727" x1="4" y1="192" x2="292" y2="192" gradientUnits="userSpaceOnUse">
<stop stop-color="#0A0C0E" stop-opacity="0.75"/>
<stop offset="1" stop-color="#0A0C0E" stop-opacity="0"/>
</linearGradient>
<linearGradient id="paint1_linear_177_727" x1="4" y1="192" x2="292" y2="192" gradientUnits="userSpaceOnUse">
<stop stop-color="#6E7072"/>
<stop offset="1" stop-color="#D0D4D8" stop-opacity="0"/>
</linearGradient>
<linearGradient id="paint2_linear_177_727" x1="20" y1="83" x2="292" y2="83" gradientUnits="userSpaceOnUse">
<stop stop-color="#121416"/>
<stop offset="1" stop-color="#121416" stop-opacity="0"/>
</linearGradient>
<linearGradient id="paint3_linear_177_727" x1="20" y1="235" x2="292" y2="235" gradientUnits="userSpaceOnUse">
<stop stop-color="#121416"/>
<stop offset="1" stop-color="#121416" stop-opacity="0"/>
</linearGradient>
<linearGradient id="paint4_linear_177_727" x1="20" y1="155" x2="292" y2="155" gradientUnits="userSpaceOnUse">
<stop stop-color="#121416"/>
<stop offset="1" stop-color="#121416" stop-opacity="0"/>
</linearGradient>
<linearGradient id="paint5_linear_177_727" x1="20" y1="179" x2="292" y2="179" gradientUnits="userSpaceOnUse">
<stop stop-color="#121416"/>
<stop offset="1" stop-color="#121416" stop-opacity="0"/>
</linearGradient>
<linearGradient id="paint6_linear_177_727" x1="20" y1="307" x2="292" y2="307" gradientUnits="userSpaceOnUse">
<stop stop-color="#121416"/>
<stop offset="1" stop-color="#121416" stop-opacity="0"/>
</linearGradient>
<linearGradient id="paint7_linear_177_727" x1="20" y1="203" x2="292" y2="203" gradientUnits="userSpaceOnUse">
<stop stop-color="#121416"/>
<stop offset="1" stop-color="#121416" stop-opacity="0"/>
</linearGradient>
<linearGradient id="paint8_linear_177_727" x1="20" y1="331" x2="292" y2="331" gradientUnits="userSpaceOnUse">
<stop stop-color="#121416"/>
<stop offset="1" stop-color="#121416" stop-opacity="0"/>
</linearGradient>
<linearGradient id="paint9_linear_177_727" x1="36" y1="224" x2="324" y2="224" gradientUnits="userSpaceOnUse">
<stop stop-color="#0A0C0E"/>
<stop offset="1" stop-color="#0A0C0E" stop-opacity="0"/>
</linearGradient>
<linearGradient id="paint10_linear_177_727" x1="36" y1="224" x2="324.5" y2="224" gradientUnits="userSpaceOnUse">
<stop stop-color="#6E7072"/>
<stop offset="1" stop-color="#6E7072" stop-opacity="0"/>
</linearGradient>
<linearGradient id="paint11_linear_177_727" x1="52" y1="115" x2="324" y2="115" gradientUnits="userSpaceOnUse">
<stop stop-color="#121416"/>
<stop offset="1" stop-color="#121416" stop-opacity="0"/>
</linearGradient>
<linearGradient id="paint12_linear_177_727" x1="52" y1="267" x2="324" y2="267" gradientUnits="userSpaceOnUse">
<stop stop-color="#121416"/>
<stop offset="1" stop-color="#121416" stop-opacity="0"/>
</linearGradient>
<linearGradient id="paint13_linear_177_727" x1="52" y1="187" x2="324" y2="187" gradientUnits="userSpaceOnUse">
<stop stop-color="#121416"/>
<stop offset="1" stop-color="#121416" stop-opacity="0"/>
</linearGradient>
<linearGradient id="paint14_linear_177_727" x1="52" y1="211" x2="324" y2="211" gradientUnits="userSpaceOnUse">
<stop stop-color="#121416"/>
<stop offset="1" stop-color="#121416" stop-opacity="0"/>
</linearGradient>
<linearGradient id="paint15_linear_177_727" x1="52" y1="339" x2="324" y2="339" gradientUnits="userSpaceOnUse">
<stop stop-color="#121416"/>
<stop offset="1" stop-color="#121416" stop-opacity="0"/>
</linearGradient>
<linearGradient id="paint16_linear_177_727" x1="52" y1="235" x2="324" y2="235" gradientUnits="userSpaceOnUse">
<stop stop-color="#121416"/>
<stop offset="1" stop-color="#121416" stop-opacity="0"/>
</linearGradient>
<linearGradient id="paint17_linear_177_727" x1="52" y1="363" x2="324" y2="363" gradientUnits="userSpaceOnUse">
<stop stop-color="#121416"/>
<stop offset="1" stop-color="#121416" stop-opacity="0"/>
</linearGradient>
<linearGradient id="paint18_linear_177_727" x1="68" y1="256" x2="372" y2="256" gradientUnits="userSpaceOnUse">
<stop stop-color="#0A0C0E"/>
<stop offset="1" stop-color="#0A0C0E" stop-opacity="0"/>
</linearGradient>
<linearGradient id="paint19_linear_177_727" x1="68" y1="256" x2="372" y2="256" gradientUnits="userSpaceOnUse">
<stop stop-color="#6E7072"/>
<stop offset="1" stop-color="#6E7072" stop-opacity="0"/>
</linearGradient>
<linearGradient id="paint20_linear_177_727" x1="84" y1="148" x2="356" y2="148" gradientUnits="userSpaceOnUse">
<stop stop-color="#121416"/>
<stop offset="1" stop-color="#121416" stop-opacity="0"/>
</linearGradient>
<linearGradient id="paint21_linear_177_727" x1="84" y1="300" x2="356" y2="300" gradientUnits="userSpaceOnUse">
<stop stop-color="#121416"/>
<stop offset="1" stop-color="#121416" stop-opacity="0"/>
</linearGradient>
<linearGradient id="paint22_linear_177_727" x1="84" y1="220" x2="356" y2="220" gradientUnits="userSpaceOnUse">
<stop stop-color="#121416"/>
<stop offset="1" stop-color="#121416" stop-opacity="0"/>
</linearGradient>
<linearGradient id="paint23_linear_177_727" x1="84" y1="244" x2="356" y2="244" gradientUnits="userSpaceOnUse">
<stop stop-color="#121416"/>
<stop offset="1" stop-color="#121416" stop-opacity="0"/>
</linearGradient>
<linearGradient id="paint24_linear_177_727" x1="84" y1="372" x2="356" y2="372" gradientUnits="userSpaceOnUse">
<stop stop-color="#121416"/>
<stop offset="1" stop-color="#121416" stop-opacity="0"/>
</linearGradient>
<linearGradient id="paint25_linear_177_727" x1="84" y1="268" x2="356" y2="268" gradientUnits="userSpaceOnUse">
<stop stop-color="#121416"/>
<stop offset="1" stop-color="#121416" stop-opacity="0"/>
</linearGradient>
<linearGradient id="paint26_linear_177_727" x1="84" y1="396" x2="356" y2="396" gradientUnits="userSpaceOnUse">
<stop stop-color="#121416"/>
<stop offset="1" stop-color="#121416" stop-opacity="0"/>
</linearGradient>
<clipPath id="clip0_177_727">
<rect width="448" height="448" fill="white" transform="translate(4)"/>
</clipPath>
</defs>
</svg>
