<svg width="220" height="144" viewBox="0 0 220 144" fill="none" xmlns="http://www.w3.org/2000/svg">
<g clip-path="url(#clip0_224_2)">
<path d="M0 0H1C1.55228 0 2 0.447715 2 1V3C2 3.55228 1.55228 4 1 4H0V0Z" fill="#6E7072" fill-opacity="0.75"/>
<path d="M0 60H1C1.55228 60 2 60.4477 2 61V63C2 63.5523 1.55228 64 1 64H0V60Z" fill="#6E7072" fill-opacity="0.75"/>
<rect x="118" width="4" height="4" rx="1" fill="#6E7072" fill-opacity="0.75"/>
<rect x="118" y="80" width="4" height="4" rx="1" fill="#6E7072" fill-opacity="0.75"/>
<rect x="58" width="4" height="4" rx="1" fill="#6E7072" fill-opacity="0.75"/>
<rect x="178" width="4" height="4" rx="1" fill="#6E7072" fill-opacity="0.75"/>
<rect x="58" y="80" width="4" height="4" rx="1" fill="#6E7072" fill-opacity="0.75"/>
<rect x="178" y="80" width="4" height="4" rx="1" fill="#6E7072" fill-opacity="0.75"/>
<path d="M0 20H1C1.55228 20 2 20.4477 2 21V23C2 23.5523 1.55228 24 1 24H0V20Z" fill="#6E7072" fill-opacity="0.75"/>
<path d="M0 80H1C1.55228 80 2 80.4477 2 81V83C2 83.5523 1.55228 84 1 84H0V80Z" fill="#6E7072" fill-opacity="0.75"/>
<path d="M0 40H1C1.55228 40 2 40.4477 2 41V43C2 43.5523 1.55228 44 1 44H0V40Z" fill="#6E7072" fill-opacity="0.75"/>
<path d="M0 100H1C1.55228 100 2 100.448 2 101V103C2 103.552 1.55228 104 1 104H0V100Z" fill="#6E7072" fill-opacity="0.75"/>
<path d="M0 120H1C1.55228 120 2 120.448 2 121V123C2 123.552 1.55228 124 1 124H0V120Z" fill="#6E7072" fill-opacity="0.75"/>
<path d="M0 140H1C1.55228 140 2 140.448 2 141V143C2 143.552 1.55228 144 1 144H0V140Z" fill="#6E7072" fill-opacity="0.75"/>
<rect x="118" y="20" width="4" height="4" rx="1" fill="#6E7072" fill-opacity="0.75"/>
<rect x="118" y="100" width="4" height="4" rx="1" fill="#6E7072" fill-opacity="0.75"/>
<rect x="58" y="20" width="4" height="4" rx="1" fill="#6E7072" fill-opacity="0.75"/>
<rect x="178" y="20" width="4" height="4" rx="1" fill="#6E7072" fill-opacity="0.75"/>
<rect x="58" y="100" width="4" height="4" rx="1" fill="#6E7072" fill-opacity="0.75"/>
<rect x="178" y="100" width="4" height="4" rx="1" fill="#6E7072" fill-opacity="0.75"/>
<rect x="118" y="40" width="4" height="4" rx="1" fill="#6E7072" fill-opacity="0.75"/>
<rect x="118" y="120" width="4" height="4" rx="1" fill="#6E7072" fill-opacity="0.75"/>
<rect x="58" y="40" width="4" height="4" rx="1" fill="#6E7072" fill-opacity="0.75"/>
<rect x="178" y="40" width="4" height="4" rx="1" fill="#6E7072" fill-opacity="0.75"/>
<rect x="58" y="120" width="4" height="4" rx="1" fill="#6E7072" fill-opacity="0.75"/>
<rect x="178" y="120" width="4" height="4" rx="1" fill="#6E7072" fill-opacity="0.75"/>
<rect x="18" y="40" width="4" height="4" rx="1" fill="#6E7072" fill-opacity="0.75"/>
<rect x="138" y="40" width="4" height="4" rx="1" fill="#6E7072" fill-opacity="0.75"/>
<rect x="18" y="120" width="4" height="4" rx="1" fill="#6E7072" fill-opacity="0.75"/>
<rect x="138" y="120" width="4" height="4" rx="1" fill="#6E7072" fill-opacity="0.75"/>
<rect x="78" y="40" width="4" height="4" rx="1" fill="#6E7072" fill-opacity="0.75"/>
<rect x="198" y="40" width="4" height="4" rx="1" fill="#6E7072" fill-opacity="0.75"/>
<rect x="78" y="120" width="4" height="4" rx="1" fill="#6E7072" fill-opacity="0.75"/>
<rect x="198" y="120" width="4" height="4" rx="1" fill="#6E7072" fill-opacity="0.75"/>
<rect x="38" y="40" width="4" height="4" rx="1" fill="#6E7072" fill-opacity="0.75"/>
<rect x="158" y="40" width="4" height="4" rx="1" fill="#6E7072" fill-opacity="0.75"/>
<rect x="38" y="120" width="4" height="4" rx="1" fill="#6E7072" fill-opacity="0.75"/>
<rect x="158" y="120" width="4" height="4" rx="1" fill="#6E7072" fill-opacity="0.75"/>
<rect x="98" y="40" width="4" height="4" rx="1" fill="#6E7072" fill-opacity="0.75"/>
<rect x="98" y="120" width="4" height="4" rx="1" fill="#6E7072" fill-opacity="0.75"/>
<rect x="118" y="60" width="4" height="4" rx="1" fill="#6E7072" fill-opacity="0.75"/>
<rect x="118" y="140" width="4" height="4" rx="1" fill="#6E7072" fill-opacity="0.75"/>
<rect x="58" y="60" width="4" height="4" rx="1" fill="#6E7072" fill-opacity="0.75"/>
<rect x="178" y="60" width="4" height="4" rx="1" fill="#6E7072" fill-opacity="0.75"/>
<rect x="58" y="140" width="4" height="4" rx="1" fill="#6E7072" fill-opacity="0.75"/>
<rect x="178" y="140" width="4" height="4" rx="1" fill="#6E7072" fill-opacity="0.75"/>
<rect x="18" y="60" width="4" height="4" rx="1" fill="#6E7072" fill-opacity="0.75"/>
<rect x="138" y="60" width="4" height="4" rx="1" fill="#6E7072" fill-opacity="0.75"/>
<rect x="18" y="140" width="4" height="4" rx="1" fill="#6E7072" fill-opacity="0.75"/>
<rect x="138" y="140" width="4" height="4" rx="1" fill="#6E7072" fill-opacity="0.75"/>
<rect x="78" y="60" width="4" height="4" rx="1" fill="#6E7072" fill-opacity="0.75"/>
<rect x="198" y="60" width="4" height="4" rx="1" fill="#6E7072" fill-opacity="0.75"/>
<rect x="78" y="140" width="4" height="4" rx="1" fill="#6E7072" fill-opacity="0.75"/>
<rect x="198" y="140" width="4" height="4" rx="1" fill="#6E7072" fill-opacity="0.75"/>
<rect x="38" y="60" width="4" height="4" rx="1" fill="#6E7072" fill-opacity="0.75"/>
<rect x="158" y="60" width="4" height="4" rx="1" fill="#6E7072" fill-opacity="0.75"/>
<rect x="38" y="140" width="4" height="4" rx="1" fill="#6E7072" fill-opacity="0.75"/>
<rect x="158" y="140" width="4" height="4" rx="1" fill="#6E7072" fill-opacity="0.75"/>
<rect x="98" y="60" width="4" height="4" rx="1" fill="#6E7072" fill-opacity="0.75"/>
<rect x="98" y="140" width="4" height="4" rx="1" fill="#6E7072" fill-opacity="0.75"/>
<path d="M218 141C218 140.448 218.448 140 219 140H220V144H219C218.448 144 218 143.552 218 143V141Z" fill="#6E7072" fill-opacity="0.75"/>
<path d="M218 61C218 60.4477 218.448 60 219 60H220V64H219C218.448 64 218 63.5523 218 63V61Z" fill="#6E7072" fill-opacity="0.75"/>
<path d="M218 101C218 100.448 218.448 100 219 100H220V104H219C218.448 104 218 103.552 218 103V101Z" fill="#6E7072" fill-opacity="0.75"/>
<path d="M218 21C218 20.4477 218.448 20 219 20H220V24H219C218.448 24 218 23.5523 218 23V21Z" fill="#6E7072" fill-opacity="0.75"/>
<path d="M218 121C218 120.448 218.448 120 219 120H220V124H219C218.448 124 218 123.552 218 123V121Z" fill="#6E7072" fill-opacity="0.75"/>
<path d="M218 41C218 40.4477 218.448 40 219 40H220V44H219C218.448 44 218 43.5523 218 43V41Z" fill="#6E7072" fill-opacity="0.75"/>
<path d="M218 81C218 80.4477 218.448 80 219 80H220V84H219C218.448 84 218 83.5523 218 83V81Z" fill="#6E7072" fill-opacity="0.75"/>
<path d="M218 1C218 0.447715 218.448 0 219 0H220V4H219C218.448 4 218 3.55228 218 3V1Z" fill="#6E7072" fill-opacity="0.75"/>
<rect x="18" y="20" width="4" height="4" rx="1" fill="#6E7072" fill-opacity="0.75"/>
<rect x="138" y="20" width="4" height="4" rx="1" fill="#6E7072" fill-opacity="0.75"/>
<rect x="18" y="100" width="4" height="4" rx="1" fill="#6E7072" fill-opacity="0.75"/>
<rect x="138" y="100" width="4" height="4" rx="1" fill="#6E7072" fill-opacity="0.75"/>
<rect x="78" y="20" width="4" height="4" rx="1" fill="#6E7072" fill-opacity="0.75"/>
<rect x="198" y="20" width="4" height="4" rx="1" fill="#6E7072" fill-opacity="0.75"/>
<rect x="78" y="100" width="4" height="4" rx="1" fill="#6E7072" fill-opacity="0.75"/>
<rect x="198" y="100" width="4" height="4" rx="1" fill="#6E7072" fill-opacity="0.75"/>
<rect x="38" y="20" width="4" height="4" rx="1" fill="#6E7072" fill-opacity="0.75"/>
<rect x="158" y="20" width="4" height="4" rx="1" fill="#6E7072" fill-opacity="0.75"/>
<rect x="38" y="100" width="4" height="4" rx="1" fill="#6E7072" fill-opacity="0.75"/>
<rect x="158" y="100" width="4" height="4" rx="1" fill="#6E7072" fill-opacity="0.75"/>
<rect x="98" y="20" width="4" height="4" rx="1" fill="#6E7072" fill-opacity="0.75"/>
<rect x="98" y="100" width="4" height="4" rx="1" fill="#6E7072" fill-opacity="0.75"/>
<rect x="18" width="4" height="4" rx="1" fill="#6E7072" fill-opacity="0.75"/>
<rect x="138" width="4" height="4" rx="1" fill="#6E7072" fill-opacity="0.75"/>
<rect x="18" y="80" width="4" height="4" rx="1" fill="#6E7072" fill-opacity="0.75"/>
<rect x="138" y="80" width="4" height="4" rx="1" fill="#6E7072" fill-opacity="0.75"/>
<rect x="78" width="4" height="4" rx="1" fill="#6E7072" fill-opacity="0.75"/>
<rect x="198" width="4" height="4" rx="1" fill="#6E7072" fill-opacity="0.75"/>
<rect x="78" y="80" width="4" height="4" rx="1" fill="#6E7072" fill-opacity="0.75"/>
<rect x="198" y="80" width="4" height="4" rx="1" fill="#6E7072" fill-opacity="0.75"/>
<rect x="38" width="4" height="4" rx="1" fill="#6E7072" fill-opacity="0.75"/>
<rect x="158" width="4" height="4" rx="1" fill="#6E7072" fill-opacity="0.75"/>
<rect x="38" y="80" width="4" height="4" rx="1" fill="#6E7072" fill-opacity="0.75"/>
<rect x="158" y="80" width="4" height="4" rx="1" fill="#6E7072" fill-opacity="0.75"/>
<rect x="98" width="4" height="4" rx="1" fill="#6E7072" fill-opacity="0.75"/>
<rect x="98" y="80" width="4" height="4" rx="1" fill="#6E7072" fill-opacity="0.75"/>
</g>
<defs>
<clipPath id="clip0_224_2">
<rect width="220" height="144" fill="white"/>
</clipPath>
</defs>
</svg>
