<svg width="448" height="448" viewBox="0 0 448 448" fill="none" xmlns="http://www.w3.org/2000/svg">
<g clip-path="url(#clip0_177_727)" filter="url(#filter0_d_177_727)">
<g filter="url(#filter1_b_177_727)">
<path d="M32 46.4798C32 38.2598 38.2287 31.3771 46.4079 30.5592L334.408 1.75921C343.827 0.817311 352 8.21385 352 17.6798V305.52C352 313.74 345.771 320.623 337.592 321.441L49.5921 350.241C40.1731 351.183 32 343.786 32 334.32V46.4798Z" fill="url(#paint0_linear_177_727)" fill-opacity="0.75"/>
<path d="M46.4577 31.0567L334.458 2.25673C343.582 1.34426 351.5 8.50966 351.5 17.6798V305.52C351.5 313.483 345.466 320.151 337.542 320.943L49.5423 349.743C40.4177 350.656 32.5 343.49 32.5 334.32V46.4798C32.5 38.5166 38.5341 31.8491 46.4577 31.0567Z" stroke="url(#paint1_linear_177_727)" stroke-opacity="0.75"/>
</g>
<path d="M48 74.1603C48 70.0839 51.0651 66.6594 55.1165 66.2093L327.117 35.987C331.855 35.4605 336 39.17 336 43.9381V91.8397C336 95.9161 332.935 99.3406 328.883 99.7907L56.8834 130.013C52.1445 130.539 48 126.83 48 122.062V74.1603Z" fill="url(#paint2_linear_177_727)" fill-opacity="0.75"/>
<path d="M48 226.16C48 222.084 51.0651 218.659 55.1165 218.209L327.117 187.987C331.855 187.461 336 191.17 336 195.938V243.84C336 247.916 332.935 251.341 328.883 251.791L56.8834 282.013C52.1445 282.539 48 278.83 48 274.062V226.16Z" fill="url(#paint3_linear_177_727)" fill-opacity="0.75"/>
<path d="M48 144.37C48 141.313 50.2988 138.745 53.3374 138.407L329.337 107.74C332.892 107.345 336 110.128 336 113.704V117.63C336 120.687 333.701 123.255 330.663 123.593L54.6626 154.26C51.1084 154.655 48 151.872 48 148.296V144.37Z" fill="url(#paint4_linear_177_727)" fill-opacity="0.75"/>
<path d="M48 168.378C48 165.317 50.3035 162.747 53.3458 162.414L237.346 142.23C240.897 141.84 244 144.621 244 148.194V152.122C244 155.183 241.696 157.753 238.654 158.086L54.6542 178.27C51.1028 178.66 48 175.879 48 172.306V168.378Z" fill="url(#paint5_linear_177_727)" fill-opacity="0.75"/>
<path d="M48 296.378C48 293.317 50.3035 290.747 53.3458 290.414L237.346 270.23C240.897 269.84 244 272.621 244 276.194V280.122C244 283.183 241.696 285.753 238.654 286.086L54.6542 306.27C51.1028 306.66 48 303.879 48 300.306V296.378Z" fill="url(#paint6_linear_177_727)" fill-opacity="0.75"/>
<path d="M48 192.363C48 189.309 50.2942 186.742 53.3292 186.4L201.329 169.75C204.886 169.35 208 172.133 208 175.713V179.637C208 182.691 205.706 185.258 202.671 185.6L54.6708 202.25C51.1138 202.65 48 199.867 48 196.287V192.363Z" fill="url(#paint7_linear_177_727)" fill-opacity="0.75"/>
<path d="M48 320.363C48 317.309 50.2942 314.742 53.3292 314.4L201.329 297.75C204.886 297.35 208 300.133 208 303.713V307.637C208 310.691 205.706 313.258 202.671 313.6L54.6708 330.25C51.1138 330.65 48 327.867 48 324.287V320.363Z" fill="url(#paint8_linear_177_727)" fill-opacity="0.75"/>
<path d="M57.8141 54.0291L56.8583 52.5127L52.2756 52.9944L51.656 54.6763L49.1021 54.9448L52.5442 46.1367L55.2056 45.857L60.4038 53.7569L57.8141 54.0291ZM52.9291 51.1761L55.8291 50.8713L54.074 48.0634L52.9291 51.1761ZM68.2937 48.5235C69.6153 48.4691 70.7621 49.0484 70.8976 50.3373C71.0494 51.7813 69.8376 52.7654 67.7849 52.9811L61.3284 53.6597L60.4504 45.3057L66.4295 44.6773C68.4822 44.4616 69.8696 45.1483 70.01 46.4849C70.1091 47.4277 69.5393 48.3202 68.2937 48.5235ZM63.0392 46.747L63.2111 48.382L66.3737 48.0496C67.1852 47.9643 67.7034 47.7289 67.6357 47.0844C67.5692 46.4519 67.0134 46.3293 66.2018 46.4146L63.0392 46.747ZM67.0936 51.3404C67.9529 51.2501 68.4447 50.9933 68.3732 50.313C68.3017 49.6327 67.7685 49.4957 66.9092 49.5861L63.3767 49.9573L63.5611 51.7117L67.0936 51.3404ZM77.5686 52.2303C74.2628 52.5778 71.956 51.1792 71.6587 48.3508C71.3614 45.5224 73.3271 43.6748 76.6329 43.3274C79.9386 42.9799 82.2574 44.3772 82.5547 47.2056C82.852 50.034 80.8744 51.8829 77.5686 52.2303ZM77.3604 50.2492C79.1983 50.0561 80.2379 49.0418 80.0724 47.4665C79.9068 45.8912 78.679 45.1153 76.8411 45.3085C75.0151 45.5004 73.9635 46.5159 74.1291 48.0912C74.2947 49.6665 75.5225 50.4424 77.3604 50.2492ZM90.7211 42.1242L93.1557 41.8683L93.6198 46.2839C93.887 48.8259 92.3321 50.6786 89.2173 51.006C86.1024 51.3334 84.1844 49.8457 83.9172 47.3037L83.4531 42.888L85.8877 42.6322L86.3318 46.8569C86.4848 48.3129 87.3954 49.1704 89.0065 49.001C90.6177 48.8317 91.3182 47.8049 91.1651 46.3489L90.7211 42.1242ZM103.54 40.7768L103.744 42.7221L100.272 43.0871L100.945 49.4958L98.5106 49.7517L97.837 43.343L94.388 43.7055L94.1835 41.7602L103.54 40.7768ZM116.439 39.4211L119.029 39.1489L119.907 47.5029L117.484 47.7575L116.924 42.4229L114.023 46.8544L113.904 46.8669L110.145 43.1353L110.706 48.47L108.355 48.7171L107.477 40.3631L110.138 40.0834L113.698 43.7634L116.439 39.4211ZM124.065 45.1835L130.581 44.4986L130.777 46.3604L121.862 47.2974L120.984 38.9434L129.768 38.0202L129.963 39.8819L123.579 40.553L123.723 41.9254L128.986 41.3723L129.173 43.1505L123.91 43.7036L124.065 45.1835Z" fill="#F9FBFD" fill-opacity="0.75"/>
<g filter="url(#filter2_b_177_727)">
<path d="M64 78.4798C64 70.2598 70.2287 63.3771 78.4079 62.5592L366.408 33.7592C375.827 32.8173 384 40.2139 384 49.6798V337.52C384 345.74 377.771 352.623 369.592 353.441L81.5921 382.241C72.1731 383.183 64 375.786 64 366.32V78.4798Z" fill="url(#paint9_linear_177_727)" fill-opacity="0.75"/>
<path d="M78.4577 63.0567L366.458 34.2567C375.582 33.3443 383.5 40.5097 383.5 49.6798V337.52C383.5 345.483 377.466 352.151 369.542 352.943L81.5423 381.743C72.4177 382.656 64.5 375.49 64.5 366.32V78.4798C64.5 70.5166 70.5341 63.8491 78.4577 63.0567Z" stroke="url(#paint10_linear_177_727)" stroke-opacity="0.75"/>
</g>
<path d="M80 106.16C80 102.084 83.0651 98.6594 87.1165 98.2093L359.117 67.987C363.855 67.4605 368 71.17 368 75.9381V123.84C368 127.916 364.935 131.341 360.883 131.791L88.8834 162.013C84.1445 162.539 80 158.83 80 154.062V106.16Z" fill="url(#paint11_linear_177_727)" fill-opacity="0.75"/>
<path d="M80 258.16C80 254.084 83.0651 250.659 87.1165 250.209L359.117 219.987C363.855 219.461 368 223.17 368 227.938V275.84C368 279.916 364.935 283.341 360.883 283.791L88.8834 314.013C84.1445 314.539 80 310.83 80 306.062V258.16Z" fill="url(#paint12_linear_177_727)" fill-opacity="0.75"/>
<path d="M80 176.37C80 173.313 82.2988 170.745 85.3374 170.407L361.337 139.74C364.892 139.345 368 142.128 368 145.704V149.63C368 152.687 365.701 155.255 362.663 155.593L86.6626 186.26C83.1084 186.655 80 183.872 80 180.296V176.37Z" fill="url(#paint13_linear_177_727)" fill-opacity="0.75"/>
<path d="M80 200.378C80 197.317 82.3035 194.747 85.3458 194.414L269.346 174.23C272.897 173.84 276 176.621 276 180.194V184.122C276 187.183 273.696 189.753 270.654 190.086L86.6542 210.27C83.1028 210.66 80 207.879 80 204.306V200.378Z" fill="url(#paint14_linear_177_727)" fill-opacity="0.75"/>
<path d="M80 328.378C80 325.317 82.3035 322.747 85.3458 322.414L269.346 302.23C272.897 301.84 276 304.621 276 308.194V312.122C276 315.183 273.696 317.753 270.654 318.086L86.6542 338.27C83.1028 338.66 80 335.879 80 332.306V328.378Z" fill="url(#paint15_linear_177_727)" fill-opacity="0.75"/>
<path d="M80 224.363C80 221.309 82.2942 218.742 85.3292 218.4L233.329 201.75C236.886 201.35 240 204.133 240 207.713V211.637C240 214.691 237.706 217.258 234.671 217.6L86.6708 234.25C83.1138 234.65 80 231.867 80 228.287V224.363Z" fill="url(#paint16_linear_177_727)" fill-opacity="0.75"/>
<path d="M80 352.363C80 349.309 82.2942 346.742 85.3292 346.4L233.329 329.75C236.886 329.35 240 332.133 240 335.713V339.637C240 342.691 237.706 345.258 234.671 345.6L86.6708 362.25C83.1138 362.65 80 359.867 80 356.287V352.363Z" fill="url(#paint17_linear_177_727)" fill-opacity="0.75"/>
<path d="M87.0504 77.8733C89.3299 77.6337 90.9509 78.4769 91.1528 80.3983C91.3573 82.3436 89.9445 83.4815 87.6651 83.7211L84.2996 84.0748L84.563 86.581L82.1284 86.8369L81.2504 78.4829L87.0504 77.8733ZM87.2765 81.9761C88.1835 81.8808 88.7753 81.5411 88.6875 80.7057C88.5984 79.8584 87.949 79.6491 87.042 79.7444L83.8794 80.0768L84.114 82.3085L87.2765 81.9761ZM102.919 84.6517L100.091 84.9489L97.606 82.5435L95.1476 82.8019L95.4248 85.4394L93.0021 85.694L92.1241 77.34L97.9838 76.7241C100.12 76.4996 101.878 77.2681 102.079 79.1776C102.225 80.5739 101.435 81.5498 100.163 82.0697L102.919 84.6517ZM94.95 81.0369L98.22 80.6932C99.0912 80.6016 99.6986 80.2965 99.6133 79.4849C99.528 78.6734 98.8704 78.5012 97.9992 78.5928L94.7292 78.9365L94.95 81.0369ZM109.114 84.2781C105.808 84.6256 103.501 83.227 103.204 80.3986C102.907 77.5702 104.873 75.7226 108.178 75.3751C111.484 75.0277 113.803 76.425 114.1 79.2534C114.397 82.0818 112.42 83.9306 109.114 84.2781ZM108.906 82.297C110.744 82.1038 111.783 81.0896 111.618 79.5143C111.452 77.939 110.224 77.1631 108.387 77.3562C106.561 77.5481 105.509 78.5636 105.675 80.139C105.84 81.7143 107.068 82.4902 108.906 82.297ZM116.066 80.555C116.647 81.1455 117.264 81.3944 118.195 81.2965C119.639 81.1448 120.102 80.2636 119.964 78.9508L119.492 74.4635L121.927 74.2077L122.418 78.8859C122.662 81.2011 121.342 82.9929 118.43 83.299C116.699 83.4809 115.481 83.0297 114.58 82.147L116.066 80.555ZM126.812 80.2581L133.328 79.5732L133.524 81.435L124.609 82.372L123.731 74.018L132.515 73.0948L132.711 74.9565L126.326 75.6276L126.47 77L131.733 76.4469L131.92 78.2251L126.657 78.7783L126.812 80.2581ZM139.485 79.083C140.607 78.9651 141.426 78.4929 141.917 77.5364L144.118 78.391C143.471 79.7017 141.889 80.8333 139.633 81.0704C136.483 81.4015 134.187 79.9898 133.891 77.1733C133.595 74.3568 135.547 72.4986 138.793 72.1574C140.953 71.9304 142.727 72.7334 143.604 73.8478L141.617 75.1426C140.977 74.341 140.087 74.0243 138.966 74.1422C137.247 74.3229 136.193 75.3145 136.361 76.9137C136.529 78.5129 137.766 79.2637 139.485 79.083ZM153.22 70.9186L153.424 72.8639L149.952 73.2289L150.625 79.6376L148.191 79.8935L147.517 73.4848L144.068 73.8473L143.863 71.902L153.22 70.9186ZM159.099 73.3896C161.856 73.3291 163.846 73.6629 164.048 75.5844C164.228 77.3029 162.764 78.6393 159.732 78.9579C157.584 79.1837 155.721 78.7883 154.298 77.8761L155.417 76.2381C156.495 76.9694 157.916 77.2906 159.587 77.115C161.019 76.9645 161.708 76.6267 161.65 76.0777C161.593 75.5406 160.906 75.4319 159.173 75.4693C156.668 75.5154 154.355 75.2035 154.159 73.3417C153.971 71.5516 155.801 70.3698 158.451 70.0913C160.241 69.9032 161.933 70.1597 163.164 70.8508L162.094 72.4956C161.094 71.9371 159.945 71.7925 158.643 71.9172C157.664 72.0201 156.499 72.2994 156.562 72.8961C156.62 73.4571 157.595 73.4271 159.099 73.3896Z" fill="#F9FBFD" fill-opacity="0.75"/>
<g filter="url(#filter3_b_177_727)">
<path d="M96 110.48C96 102.26 102.229 95.3771 110.408 94.5592L398.408 65.7592C407.827 64.8173 416 72.2139 416 81.6798V369.52C416 377.74 409.771 384.623 401.592 385.441L113.592 414.241C104.173 415.183 96 407.786 96 398.32V110.48Z" fill="url(#paint18_linear_177_727)" fill-opacity="0.75"/>
<path d="M110.458 95.0567L398.458 66.2567C407.582 65.3443 415.5 72.5097 415.5 81.6798V369.52C415.5 377.483 409.466 384.151 401.542 384.943L113.542 413.743C104.418 414.656 96.5 407.49 96.5 398.32V110.48C96.5 102.517 102.534 95.8491 110.458 95.0567Z" stroke="url(#paint19_linear_177_727)" stroke-opacity="0.75"/>
</g>
<path d="M112 139.16C112 135.084 115.065 131.659 119.117 131.209L391.117 100.987C395.855 100.461 400 104.17 400 108.938V156.84C400 160.916 396.935 164.341 392.883 164.791L120.883 195.013C116.145 195.539 112 191.83 112 187.062V139.16Z" fill="url(#paint20_linear_177_727)" fill-opacity="0.75"/>
<path d="M112 291.16C112 287.084 115.065 283.659 119.117 283.209L391.117 252.987C395.855 252.461 400 256.17 400 260.938V308.84C400 312.916 396.935 316.341 392.883 316.791L120.883 347.013C116.145 347.539 112 343.83 112 339.062V291.16Z" fill="url(#paint21_linear_177_727)" fill-opacity="0.75"/>
<path d="M112 209.37C112 206.313 114.299 203.745 117.337 203.407L393.337 172.74C396.892 172.345 400 175.128 400 178.704V182.63C400 185.687 397.701 188.255 394.663 188.593L118.663 219.26C115.108 219.655 112 216.872 112 213.296V209.37Z" fill="url(#paint22_linear_177_727)" fill-opacity="0.75"/>
<path d="M112 233.378C112 230.317 114.304 227.747 117.346 227.414L301.346 207.23C304.897 206.84 308 209.621 308 213.194V217.122C308 220.183 305.696 222.753 302.654 223.086L118.654 243.27C115.103 243.66 112 240.879 112 237.306V233.378Z" fill="url(#paint23_linear_177_727)" fill-opacity="0.75"/>
<path d="M112 361.378C112 358.317 114.304 355.747 117.346 355.414L301.346 335.23C304.897 334.84 308 337.621 308 341.194V345.122C308 348.183 305.696 350.753 302.654 351.086L118.654 371.27C115.103 371.66 112 368.879 112 365.306V361.378Z" fill="url(#paint24_linear_177_727)" fill-opacity="0.75"/>
<path d="M112 257.363C112 254.309 114.294 251.742 117.329 251.4L265.329 234.75C268.886 234.35 272 237.133 272 240.713V244.637C272 247.691 269.706 250.258 266.671 250.6L118.671 267.25C115.114 267.65 112 264.867 112 261.287V257.363Z" fill="url(#paint25_linear_177_727)" fill-opacity="0.75"/>
<path d="M112 385.363C112 382.309 114.294 379.742 117.329 379.4L265.329 362.75C268.886 362.35 272 365.133 272 368.713V372.637C272 375.691 269.706 378.258 266.671 378.6L118.671 395.25C115.114 395.65 112 392.867 112 389.287V385.363Z" fill="url(#paint26_linear_177_727)" fill-opacity="0.75"/>
<path d="M122.022 109.561L122.183 111.089L116.963 116.645L122.894 116.021L123.091 117.895L113.603 118.892L113.443 117.364L118.675 111.807L113.137 112.389L112.94 110.516L122.022 109.561ZM131.2 108.596L133.551 108.349L134.429 116.703L132.293 116.928L126.322 112.005L126.899 117.495L124.548 117.742L123.67 109.388L126.247 109.117L131.737 113.704L131.2 108.596ZM145.726 110.629L146.069 113.887C145.29 115.091 143.721 116.004 141.49 116.239C138.064 116.599 135.77 115.199 135.472 112.37C135.175 109.542 137.129 107.696 140.554 107.336C142.618 107.119 144.187 107.69 145.143 108.41L143.503 109.91C142.719 109.34 141.937 109.133 140.815 109.251C138.787 109.464 137.771 110.476 137.943 112.111C138.116 113.758 139.355 114.532 141.384 114.319C142.411 114.211 143.201 113.923 143.729 113.325L143.65 112.573L140.881 112.864L140.702 111.157L145.726 110.629ZM157.704 114.257L154.876 114.554L152.391 112.149L149.932 112.407L150.209 115.045L147.787 115.299L146.909 106.945L152.768 106.329C154.905 106.105 156.663 106.873 156.863 108.783C157.01 110.179 156.22 111.155 154.947 111.675L157.704 114.257ZM149.735 110.642L153.005 110.298C153.876 110.207 154.483 109.902 154.398 109.09C154.313 108.279 153.655 108.106 152.784 108.198L149.514 108.542L149.735 110.642ZM165.91 104.948C169.12 104.611 171.324 105.948 171.6 108.573C171.876 111.199 169.998 112.965 166.788 113.302L162.122 113.793L161.244 105.439L165.91 104.948ZM166.394 111.389C168.184 111.201 169.273 110.314 169.118 108.834C168.962 107.354 167.713 106.713 165.922 106.902L163.882 107.116L164.353 111.603L166.394 111.389ZM170.905 104.423L173.626 104.137L176.439 107.485L178.483 103.627L181.192 103.342L177.848 109.292L178.144 112.109L175.709 112.364L175.413 109.548L170.905 104.423ZM189.648 102.453L191.999 102.206L192.877 110.56L190.741 110.785L184.769 105.862L185.346 111.352L182.995 111.599L182.117 103.245L184.695 102.974L190.185 107.561L189.648 102.453ZM202.522 109.546L201.566 108.03L196.983 108.512L196.364 110.194L193.81 110.462L197.252 101.654L199.913 101.374L205.112 109.274L202.522 109.546ZM197.637 106.693L200.537 106.389L198.782 103.581L197.637 106.693ZM214.121 99.881L216.711 99.6088L217.589 107.963L215.166 108.217L214.605 102.883L211.705 107.314L211.585 107.327L207.827 103.595L208.387 108.93L206.036 109.177L205.158 100.823L207.82 100.543L211.38 104.223L214.121 99.881ZM221.978 107.501L219.544 107.757L218.666 99.4033L221.1 99.1474L221.978 107.501ZM228.627 105.077C229.749 104.959 230.568 104.487 231.059 103.53L233.26 104.385C232.614 105.696 231.031 106.827 228.776 107.064C225.625 107.396 223.329 105.984 223.033 103.167C222.737 100.351 224.689 98.4927 227.935 98.1515C230.096 97.9245 231.869 98.7275 232.746 99.8419L230.759 101.137C230.12 100.335 229.23 100.018 228.108 100.136C226.389 100.317 225.335 101.309 225.503 102.908C225.671 104.507 226.909 105.258 228.627 105.077ZM238.65 100.392C241.406 100.331 243.396 100.665 243.598 102.587C243.779 104.305 242.314 105.642 239.283 105.96C237.135 106.186 235.271 105.791 233.848 104.878L234.967 103.24C236.045 103.972 237.467 104.293 239.138 104.117C240.57 103.967 241.258 103.629 241.201 103.08C241.144 102.543 240.457 102.434 238.723 102.472C236.218 102.518 233.905 102.206 233.709 100.344C233.521 98.5538 235.352 97.372 238.001 97.0935C239.791 96.9054 241.483 97.1619 242.714 97.853L241.645 99.4979C240.645 98.9393 239.495 98.7947 238.193 98.9195C237.215 99.0223 236.049 99.3017 236.112 99.8984C236.171 100.459 237.145 100.429 238.65 100.392Z" fill="#F9FBFD" fill-opacity="0.75"/>
</g>
<defs>
<filter id="filter0_d_177_727" x="-4" y="0" width="456" height="456" filterUnits="userSpaceOnUse" color-interpolation-filters="sRGB">
<feFlood flood-opacity="0" result="BackgroundImageFix"/>
<feColorMatrix in="SourceAlpha" type="matrix" values="0 0 0 0 0 0 0 0 0 0 0 0 0 0 0 0 0 0 127 0" result="hardAlpha"/>
<feOffset dy="4"/>
<feGaussianBlur stdDeviation="2"/>
<feComposite in2="hardAlpha" operator="out"/>
<feColorMatrix type="matrix" values="0 0 0 0 0 0 0 0 0 0 0 0 0 0 0 0 0 0 0.25 0"/>
<feBlend mode="normal" in2="BackgroundImageFix" result="effect1_dropShadow_177_727"/>
<feBlend mode="normal" in="SourceGraphic" in2="effect1_dropShadow_177_727" result="shape"/>
</filter>
<filter id="filter1_b_177_727" x="16" y="-14.3217" width="352" height="380.643" filterUnits="userSpaceOnUse" color-interpolation-filters="sRGB">
<feFlood flood-opacity="0" result="BackgroundImageFix"/>
<feGaussianBlur in="BackgroundImageFix" stdDeviation="8"/>
<feComposite in2="SourceAlpha" operator="in" result="effect1_backgroundBlur_177_727"/>
<feBlend mode="normal" in="SourceGraphic" in2="effect1_backgroundBlur_177_727" result="shape"/>
</filter>
<filter id="filter2_b_177_727" x="48" y="17.6783" width="352" height="380.643" filterUnits="userSpaceOnUse" color-interpolation-filters="sRGB">
<feFlood flood-opacity="0" result="BackgroundImageFix"/>
<feGaussianBlur in="BackgroundImageFix" stdDeviation="8"/>
<feComposite in2="SourceAlpha" operator="in" result="effect1_backgroundBlur_177_727"/>
<feBlend mode="normal" in="SourceGraphic" in2="effect1_backgroundBlur_177_727" result="shape"/>
</filter>
<filter id="filter3_b_177_727" x="80" y="49.6783" width="352" height="380.643" filterUnits="userSpaceOnUse" color-interpolation-filters="sRGB">
<feFlood flood-opacity="0" result="BackgroundImageFix"/>
<feGaussianBlur in="BackgroundImageFix" stdDeviation="8"/>
<feComposite in2="SourceAlpha" operator="in" result="effect1_backgroundBlur_177_727"/>
<feBlend mode="normal" in="SourceGraphic" in2="effect1_backgroundBlur_177_727" result="shape"/>
</filter>
<linearGradient id="paint0_linear_177_727" x1="32" y1="192" x2="320" y2="192" gradientUnits="userSpaceOnUse">
<stop stop-color="#0A0C0E" stop-opacity="0.75"/>
<stop offset="1" stop-color="#0A0C0E" stop-opacity="0"/>
</linearGradient>
<linearGradient id="paint1_linear_177_727" x1="32" y1="192" x2="320" y2="192" gradientUnits="userSpaceOnUse">
<stop stop-color="#6E7072"/>
<stop offset="1" stop-color="#D0D4D8" stop-opacity="0"/>
</linearGradient>
<linearGradient id="paint2_linear_177_727" x1="48" y1="83" x2="320" y2="83" gradientUnits="userSpaceOnUse">
<stop stop-color="#121416"/>
<stop offset="1" stop-color="#121416" stop-opacity="0"/>
</linearGradient>
<linearGradient id="paint3_linear_177_727" x1="48" y1="235" x2="320" y2="235" gradientUnits="userSpaceOnUse">
<stop stop-color="#121416"/>
<stop offset="1" stop-color="#121416" stop-opacity="0"/>
</linearGradient>
<linearGradient id="paint4_linear_177_727" x1="48" y1="155" x2="320" y2="155" gradientUnits="userSpaceOnUse">
<stop stop-color="#121416"/>
<stop offset="1" stop-color="#121416" stop-opacity="0"/>
</linearGradient>
<linearGradient id="paint5_linear_177_727" x1="48" y1="179" x2="320" y2="179" gradientUnits="userSpaceOnUse">
<stop stop-color="#121416"/>
<stop offset="1" stop-color="#121416" stop-opacity="0"/>
</linearGradient>
<linearGradient id="paint6_linear_177_727" x1="48" y1="307" x2="320" y2="307" gradientUnits="userSpaceOnUse">
<stop stop-color="#121416"/>
<stop offset="1" stop-color="#121416" stop-opacity="0"/>
</linearGradient>
<linearGradient id="paint7_linear_177_727" x1="48" y1="203" x2="320" y2="203" gradientUnits="userSpaceOnUse">
<stop stop-color="#121416"/>
<stop offset="1" stop-color="#121416" stop-opacity="0"/>
</linearGradient>
<linearGradient id="paint8_linear_177_727" x1="48" y1="331" x2="320" y2="331" gradientUnits="userSpaceOnUse">
<stop stop-color="#121416"/>
<stop offset="1" stop-color="#121416" stop-opacity="0"/>
</linearGradient>
<linearGradient id="paint9_linear_177_727" x1="64" y1="224" x2="352" y2="224" gradientUnits="userSpaceOnUse">
<stop stop-color="#0A0C0E"/>
<stop offset="1" stop-color="#0A0C0E" stop-opacity="0"/>
</linearGradient>
<linearGradient id="paint10_linear_177_727" x1="64" y1="224" x2="352.5" y2="224" gradientUnits="userSpaceOnUse">
<stop stop-color="#6E7072"/>
<stop offset="1" stop-color="#6E7072" stop-opacity="0"/>
</linearGradient>
<linearGradient id="paint11_linear_177_727" x1="80" y1="115" x2="352" y2="115" gradientUnits="userSpaceOnUse">
<stop stop-color="#121416"/>
<stop offset="1" stop-color="#121416" stop-opacity="0"/>
</linearGradient>
<linearGradient id="paint12_linear_177_727" x1="80" y1="267" x2="352" y2="267" gradientUnits="userSpaceOnUse">
<stop stop-color="#121416"/>
<stop offset="1" stop-color="#121416" stop-opacity="0"/>
</linearGradient>
<linearGradient id="paint13_linear_177_727" x1="80" y1="187" x2="352" y2="187" gradientUnits="userSpaceOnUse">
<stop stop-color="#121416"/>
<stop offset="1" stop-color="#121416" stop-opacity="0"/>
</linearGradient>
<linearGradient id="paint14_linear_177_727" x1="80" y1="211" x2="352" y2="211" gradientUnits="userSpaceOnUse">
<stop stop-color="#121416"/>
<stop offset="1" stop-color="#121416" stop-opacity="0"/>
</linearGradient>
<linearGradient id="paint15_linear_177_727" x1="80" y1="339" x2="352" y2="339" gradientUnits="userSpaceOnUse">
<stop stop-color="#121416"/>
<stop offset="1" stop-color="#121416" stop-opacity="0"/>
</linearGradient>
<linearGradient id="paint16_linear_177_727" x1="80" y1="235" x2="352" y2="235" gradientUnits="userSpaceOnUse">
<stop stop-color="#121416"/>
<stop offset="1" stop-color="#121416" stop-opacity="0"/>
</linearGradient>
<linearGradient id="paint17_linear_177_727" x1="80" y1="363" x2="352" y2="363" gradientUnits="userSpaceOnUse">
<stop stop-color="#121416"/>
<stop offset="1" stop-color="#121416" stop-opacity="0"/>
</linearGradient>
<linearGradient id="paint18_linear_177_727" x1="96" y1="256" x2="400" y2="256" gradientUnits="userSpaceOnUse">
<stop stop-color="#0A0C0E"/>
<stop offset="1" stop-color="#0A0C0E" stop-opacity="0"/>
</linearGradient>
<linearGradient id="paint19_linear_177_727" x1="96" y1="256" x2="400" y2="256" gradientUnits="userSpaceOnUse">
<stop stop-color="#6E7072"/>
<stop offset="1" stop-color="#6E7072" stop-opacity="0"/>
</linearGradient>
<linearGradient id="paint20_linear_177_727" x1="112" y1="148" x2="384" y2="148" gradientUnits="userSpaceOnUse">
<stop stop-color="#121416"/>
<stop offset="1" stop-color="#121416" stop-opacity="0"/>
</linearGradient>
<linearGradient id="paint21_linear_177_727" x1="112" y1="300" x2="384" y2="300" gradientUnits="userSpaceOnUse">
<stop stop-color="#121416"/>
<stop offset="1" stop-color="#121416" stop-opacity="0"/>
</linearGradient>
<linearGradient id="paint22_linear_177_727" x1="112" y1="220" x2="384" y2="220" gradientUnits="userSpaceOnUse">
<stop stop-color="#121416"/>
<stop offset="1" stop-color="#121416" stop-opacity="0"/>
</linearGradient>
<linearGradient id="paint23_linear_177_727" x1="112" y1="244" x2="384" y2="244" gradientUnits="userSpaceOnUse">
<stop stop-color="#121416"/>
<stop offset="1" stop-color="#121416" stop-opacity="0"/>
</linearGradient>
<linearGradient id="paint24_linear_177_727" x1="112" y1="372" x2="384" y2="372" gradientUnits="userSpaceOnUse">
<stop stop-color="#121416"/>
<stop offset="1" stop-color="#121416" stop-opacity="0"/>
</linearGradient>
<linearGradient id="paint25_linear_177_727" x1="112" y1="268" x2="384" y2="268" gradientUnits="userSpaceOnUse">
<stop stop-color="#121416"/>
<stop offset="1" stop-color="#121416" stop-opacity="0"/>
</linearGradient>
<linearGradient id="paint26_linear_177_727" x1="112" y1="396" x2="384" y2="396" gradientUnits="userSpaceOnUse">
<stop stop-color="#121416"/>
<stop offset="1" stop-color="#121416" stop-opacity="0"/>
</linearGradient>
<clipPath id="clip0_177_727">
<rect width="448" height="448" fill="white"/>
</clipPath>
</defs>
</svg>
