<svg width="308" height="271" viewBox="0 0 308 271" fill="none" xmlns="http://www.w3.org/2000/svg">
<g filter="url(#filter0_di_175_628)">
<path fill-rule="evenodd" clip-rule="evenodd" d="M162.995 68.8891C158.458 73.3374 152.255 76.0782 145.415 76.0782C142.514 76.0782 139.729 75.5854 137.136 74.6786C133.707 80.2699 127.539 83.9998 120.5 83.9998C109.73 83.9998 101 75.2694 101 64.4998C101 53.7302 109.73 44.9998 120.5 44.9998C120.634 44.9998 120.767 45.0012 120.9 45.0038C123.502 33.8197 133.49 25.49 145.415 25.49C156.258 25.49 165.501 32.3783 169.044 42.0373C172.066 40.114 175.653 38.9998 179.5 38.9998C190.27 38.9998 199 47.7302 199 58.4998C199 69.2694 190.27 77.9998 179.5 77.9998C172.549 77.9998 166.448 74.3633 162.995 68.8891Z" fill="#6E7072"/>
</g>
<g filter="url(#filter1_di_175_628)">
<path fill-rule="evenodd" clip-rule="evenodd" d="M175.85 49.3016C172.521 39.2489 163.082 32 151.958 32C138.054 32 126.783 43.3246 126.783 57.2941C117.514 57.2942 110 64.8439 110 74.1569C110 83.4699 117.514 91.0196 126.783 91.0196L126.799 91.0196H202.291L202.308 91.0196C211.577 91.0196 219.091 83.4699 219.091 74.1569C219.091 64.8438 211.577 57.2941 202.308 57.2941C200.071 57.2941 197.936 57.7338 195.985 58.5317C195.54 51.9529 190.087 46.7549 183.427 46.7549C180.582 46.7549 177.958 47.7029 175.85 49.3016Z" fill="#6E7072"/>
</g>
<g filter="url(#filter2_di_175_628)">
<path fill-rule="evenodd" clip-rule="evenodd" d="M56 187C73.6731 187 88 183.418 88 179C88 174.582 73.6731 171 56 171C38.3269 171 24 174.582 24 179C24 183.418 38.3269 187 56 187ZM56 191C73.6731 191 88 187.418 88 183V199C88 203.418 73.6731 207 56 207C38.3269 207 24 203.418 24 199V183C24 187.418 38.3269 191 56 191ZM88 203C88 207.418 73.6731 211 56 211C38.3269 211 24 207.418 24 203V219C24 223.418 38.3269 227 56 227C73.6731 227 88 223.418 88 219V203ZM56 231C73.6731 231 88 227.418 88 223V239C88 243.418 73.6731 247 56 247C38.3269 247 24 243.418 24 239V223C24 227.418 38.3269 231 56 231Z" fill="#6E7072"/>
</g>
<path fill-rule="evenodd" clip-rule="evenodd" d="M104 188C104 188.552 104.448 189 105 189C105.552 189 106 188.552 106 188C106 187.448 105.552 187 105 187C104.448 187 104 187.448 104 188ZM134 188C134 188.552 134.448 189 135 189C135.552 189 136 188.552 136 188C136 187.448 135.552 187 135 187C134.448 187 134 187.448 134 188ZM144 188C144 188.552 144.448 189 145 189C145.552 189 146 188.552 146 188C146 187.448 145.552 187 145 187C144.448 187 144 187.448 144 188ZM155 189C154.448 189 154 188.552 154 188C154 187.448 154.448 187 155 187C155.552 187 156 187.448 156 188C156 188.552 155.552 189 155 189ZM164 188C164 188.552 164.448 189 165 189C165.552 189 166 188.552 166 188C166 187.448 165.552 187 165 187C164.448 187 164 187.448 164 188ZM175 189C174.448 189 174 188.552 174 188C174 187.448 174.448 187 175 187C175.552 187 176 187.448 176 188C176 188.552 175.552 189 175 189ZM184 188C184 188.552 184.448 189 185 189C185.552 189 186 188.552 186 188C186 187.448 185.552 187 185 187C184.448 187 184 187.448 184 188ZM195 189C194.448 189 194 188.552 194 188C194 187.448 194.448 187 195 187C195.552 187 196 187.448 196 188C196 188.552 195.552 189 195 189ZM115 189C114.448 189 114 188.552 114 188C114 187.448 114.448 187 115 187C115.552 187 116 187.448 116 188C116 188.552 115.552 189 115 189ZM124 188C124 188.552 124.448 189 125 189C125.552 189 126 188.552 126 188C126 187.448 125.552 187 125 187C124.448 187 124 187.448 124 188Z" fill="#6E7072"/>
<path fill-rule="evenodd" clip-rule="evenodd" d="M221.335 108.044C220.856 108.32 220.692 108.931 220.969 109.41C221.245 109.888 221.856 110.052 222.335 109.776C222.813 109.5 222.977 108.888 222.701 108.41C222.425 107.931 221.813 107.768 221.335 108.044ZM236.335 134.024C235.856 134.301 235.692 134.912 235.969 135.39C236.245 135.869 236.856 136.033 237.335 135.757C237.813 135.48 237.977 134.869 237.701 134.39C237.425 133.912 236.813 133.748 236.335 134.024ZM241.335 142.685C240.856 142.961 240.692 143.572 240.969 144.051C241.245 144.529 241.856 144.693 242.335 144.417C242.813 144.141 242.977 143.529 242.701 143.051C242.425 142.572 241.813 142.409 241.335 142.685ZM245.969 152.711C245.692 152.233 245.856 151.621 246.335 151.345C246.813 151.069 247.425 151.233 247.701 151.711C247.977 152.189 247.813 152.801 247.335 153.077C246.856 153.353 246.245 153.189 245.969 152.711ZM225.969 118.07C225.692 117.592 225.856 116.98 226.335 116.704C226.813 116.428 227.425 116.592 227.701 117.07C227.977 117.548 227.813 118.16 227.335 118.436C226.856 118.712 226.245 118.548 225.969 118.07ZM231.335 125.364C230.856 125.64 230.692 126.252 230.969 126.73C231.245 127.209 231.856 127.372 232.335 127.096C232.813 126.82 232.977 126.209 232.701 125.73C232.425 125.252 231.813 125.088 231.335 125.364Z" fill="#6E7072"/>
<path fill-rule="evenodd" clip-rule="evenodd" d="M104.866 111.892C105.344 112.168 105.956 112.005 106.232 111.526C106.508 111.048 106.344 110.436 105.866 110.16C105.388 109.884 104.776 110.048 104.5 110.526C104.224 111.005 104.388 111.616 104.866 111.892ZM101.232 120.187C100.956 120.665 100.344 120.829 99.8659 120.553C99.3876 120.276 99.2237 119.665 99.4999 119.187C99.776 118.708 100.388 118.544 100.866 118.821C101.344 119.097 101.508 119.708 101.232 120.187ZM94.8659 129.213C95.3442 129.489 95.9558 129.325 96.2319 128.847C96.5081 128.368 96.3442 127.757 95.8659 127.481C95.3876 127.205 94.776 127.368 94.4999 127.847C94.2237 128.325 94.3876 128.937 94.8659 129.213ZM91.2319 137.507C90.9558 137.985 90.3442 138.149 89.8659 137.873C89.3876 137.597 89.2237 136.985 89.4999 136.507C89.776 136.029 90.3876 135.865 90.8659 136.141C91.3442 136.417 91.5081 137.029 91.2319 137.507ZM84.8659 146.533C85.3442 146.809 85.9558 146.646 86.2319 146.167C86.5081 145.689 86.3442 145.077 85.8659 144.801C85.3876 144.525 84.776 144.689 84.4999 145.167C84.2237 145.646 84.3876 146.257 84.8659 146.533ZM79.8659 155.194C80.3442 155.47 80.9558 155.306 81.2319 154.828C81.5081 154.349 81.3442 153.738 80.8659 153.462C80.3876 153.185 79.776 153.349 79.4999 153.828C79.2237 154.306 79.3876 154.917 79.8659 155.194Z" fill="#6E7072"/>
<g filter="url(#filter3_d_175_628)">
<path fill-rule="evenodd" clip-rule="evenodd" d="M216 208.5C213.791 208.5 212 210.291 212 212.5V216.5C212 218.709 213.791 220.5 216 220.5H280C282.209 220.5 284 218.709 284 216.5V212.5C284 210.291 282.209 208.5 280 208.5H216ZM218 216.75C219.243 216.75 220.25 215.743 220.25 214.5C220.25 213.257 219.243 212.25 218 212.25C216.757 212.25 215.75 213.257 215.75 214.5C215.75 215.743 216.757 216.75 218 216.75ZM254 214.5C254 213.257 255.007 212.25 256.25 212.25H275.75C276.993 212.25 278 213.257 278 214.5C278 215.743 276.993 216.75 275.75 216.75H256.25C255.007 216.75 254 215.743 254 214.5ZM238.25 212.25C237.007 212.25 236 213.257 236 214.5C236 215.743 237.007 216.75 238.25 216.75H245.75C246.993 216.75 248 215.743 248 214.5C248 213.257 246.993 212.25 245.75 212.25H238.25Z" fill="#6E7072"/>
</g>
<g filter="url(#filter4_d_175_628)">
<path fill-rule="evenodd" clip-rule="evenodd" d="M216 194C213.791 194 212 195.791 212 198V202C212 204.209 213.791 206 216 206H280C282.209 206 284 204.209 284 202V198C284 195.791 282.209 194 280 194H216ZM218 202.25C219.243 202.25 220.25 201.243 220.25 200C220.25 198.757 219.243 197.75 218 197.75C216.757 197.75 215.75 198.757 215.75 200C215.75 201.243 216.757 202.25 218 202.25ZM254 200C254 198.757 255.007 197.75 256.25 197.75H275.75C276.993 197.75 278 198.757 278 200C278 201.243 276.993 202.25 275.75 202.25H256.25C255.007 202.25 254 201.243 254 200ZM238.25 197.75C237.007 197.75 236 198.757 236 200C236 201.243 237.007 202.25 238.25 202.25H245.75C246.993 202.25 248 201.243 248 200C248 198.757 246.993 197.75 245.75 197.75H238.25Z" fill="#6E7072"/>
</g>
<g filter="url(#filter5_d_175_628)">
<path fill-rule="evenodd" clip-rule="evenodd" d="M216 179.5C213.791 179.5 212 181.291 212 183.5V187.5C212 189.709 213.791 191.5 216 191.5H280C282.209 191.5 284 189.709 284 187.5V183.5C284 181.291 282.209 179.5 280 179.5H216ZM218 187.75C219.243 187.75 220.25 186.743 220.25 185.5C220.25 184.257 219.243 183.25 218 183.25C216.757 183.25 215.75 184.257 215.75 185.5C215.75 186.743 216.757 187.75 218 187.75ZM254 185.5C254 184.257 255.007 183.25 256.25 183.25H275.75C276.993 183.25 278 184.257 278 185.5C278 186.743 276.993 187.75 275.75 187.75H256.25C255.007 187.75 254 186.743 254 185.5ZM238.25 183.25C237.007 183.25 236 184.257 236 185.5C236 186.743 237.007 187.75 238.25 187.75H245.75C246.993 187.75 248 186.743 248 185.5C248 184.257 246.993 183.25 245.75 183.25H238.25Z" fill="#6E7072"/>
</g>
<g filter="url(#filter6_d_175_628)">
<path d="M223.748 169.168L214.748 175.168C213.925 175.717 214.313 177 215.303 177H280.697C281.687 177 282.075 175.717 281.252 175.168L272.252 169.168C272.088 169.058 271.895 169 271.697 169H224.303C224.105 169 223.912 169.058 223.748 169.168Z" fill="#6E7072"/>
</g>
<defs>
<filter id="filter0_di_175_628" x="97" y="25.49" width="106" height="66.5098" filterUnits="userSpaceOnUse" color-interpolation-filters="sRGB">
<feFlood flood-opacity="0" result="BackgroundImageFix"/>
<feColorMatrix in="SourceAlpha" type="matrix" values="0 0 0 0 0 0 0 0 0 0 0 0 0 0 0 0 0 0 127 0" result="hardAlpha"/>
<feOffset dy="4"/>
<feGaussianBlur stdDeviation="2"/>
<feComposite in2="hardAlpha" operator="out"/>
<feColorMatrix type="matrix" values="0 0 0 0 0 0 0 0 0 0 0 0 0 0 0 0 0 0 0.25 0"/>
<feBlend mode="normal" in2="BackgroundImageFix" result="effect1_dropShadow_175_628"/>
<feBlend mode="normal" in="SourceGraphic" in2="effect1_dropShadow_175_628" result="shape"/>
<feColorMatrix in="SourceAlpha" type="matrix" values="0 0 0 0 0 0 0 0 0 0 0 0 0 0 0 0 0 0 127 0" result="hardAlpha"/>
<feOffset/>
<feGaussianBlur stdDeviation="2"/>
<feComposite in2="hardAlpha" operator="arithmetic" k2="-1" k3="1"/>
<feColorMatrix type="matrix" values="0 0 0 0 0.133333 0 0 0 0 0.141176 0 0 0 0 0.14902 0 0 0 1 0"/>
<feBlend mode="normal" in2="shape" result="effect2_innerShadow_175_628"/>
</filter>
<filter id="filter1_di_175_628" x="106" y="32" width="117.091" height="67.0196" filterUnits="userSpaceOnUse" color-interpolation-filters="sRGB">
<feFlood flood-opacity="0" result="BackgroundImageFix"/>
<feColorMatrix in="SourceAlpha" type="matrix" values="0 0 0 0 0 0 0 0 0 0 0 0 0 0 0 0 0 0 127 0" result="hardAlpha"/>
<feOffset dy="4"/>
<feGaussianBlur stdDeviation="2"/>
<feComposite in2="hardAlpha" operator="out"/>
<feColorMatrix type="matrix" values="0 0 0 0 0.00784314 0 0 0 0 0.0156863 0 0 0 0 0.0235294 0 0 0 0.25 0"/>
<feBlend mode="normal" in2="BackgroundImageFix" result="effect1_dropShadow_175_628"/>
<feBlend mode="normal" in="SourceGraphic" in2="effect1_dropShadow_175_628" result="shape"/>
<feColorMatrix in="SourceAlpha" type="matrix" values="0 0 0 0 0 0 0 0 0 0 0 0 0 0 0 0 0 0 127 0" result="hardAlpha"/>
<feOffset/>
<feGaussianBlur stdDeviation="2"/>
<feComposite in2="hardAlpha" operator="arithmetic" k2="-1" k3="1"/>
<feColorMatrix type="matrix" values="0 0 0 0 0.133333 0 0 0 0 0.141176 0 0 0 0 0.14902 0 0 0 1 0"/>
<feBlend mode="normal" in2="shape" result="effect2_innerShadow_175_628"/>
</filter>
<filter id="filter2_di_175_628" x="20" y="169" width="72" height="84" filterUnits="userSpaceOnUse" color-interpolation-filters="sRGB">
<feFlood flood-opacity="0" result="BackgroundImageFix"/>
<feColorMatrix in="SourceAlpha" type="matrix" values="0 0 0 0 0 0 0 0 0 0 0 0 0 0 0 0 0 0 127 0" result="hardAlpha"/>
<feOffset dy="2"/>
<feGaussianBlur stdDeviation="2"/>
<feComposite in2="hardAlpha" operator="out"/>
<feColorMatrix type="matrix" values="0 0 0 0 0.00784314 0 0 0 0 0.0156863 0 0 0 0 0.0235294 0 0 0 0.25 0"/>
<feBlend mode="normal" in2="BackgroundImageFix" result="effect1_dropShadow_175_628"/>
<feBlend mode="normal" in="SourceGraphic" in2="effect1_dropShadow_175_628" result="shape"/>
<feColorMatrix in="SourceAlpha" type="matrix" values="0 0 0 0 0 0 0 0 0 0 0 0 0 0 0 0 0 0 127 0" result="hardAlpha"/>
<feOffset/>
<feGaussianBlur stdDeviation="2"/>
<feComposite in2="hardAlpha" operator="arithmetic" k2="-1" k3="1"/>
<feColorMatrix type="matrix" values="0 0 0 0 0.133333 0 0 0 0 0.141176 0 0 0 0 0.14902 0 0 0 1 0"/>
<feBlend mode="normal" in2="shape" result="effect2_innerShadow_175_628"/>
</filter>
<filter id="filter3_d_175_628" x="208" y="206.5" width="80" height="20" filterUnits="userSpaceOnUse" color-interpolation-filters="sRGB">
<feFlood flood-opacity="0" result="BackgroundImageFix"/>
<feColorMatrix in="SourceAlpha" type="matrix" values="0 0 0 0 0 0 0 0 0 0 0 0 0 0 0 0 0 0 127 0" result="hardAlpha"/>
<feOffset dy="2"/>
<feGaussianBlur stdDeviation="2"/>
<feComposite in2="hardAlpha" operator="out"/>
<feColorMatrix type="matrix" values="0 0 0 0 0.00784314 0 0 0 0 0.0156863 0 0 0 0 0.0235294 0 0 0 0.5 0"/>
<feBlend mode="normal" in2="BackgroundImageFix" result="effect1_dropShadow_175_628"/>
<feBlend mode="normal" in="SourceGraphic" in2="effect1_dropShadow_175_628" result="shape"/>
</filter>
<filter id="filter4_d_175_628" x="208" y="192" width="80" height="20" filterUnits="userSpaceOnUse" color-interpolation-filters="sRGB">
<feFlood flood-opacity="0" result="BackgroundImageFix"/>
<feColorMatrix in="SourceAlpha" type="matrix" values="0 0 0 0 0 0 0 0 0 0 0 0 0 0 0 0 0 0 127 0" result="hardAlpha"/>
<feOffset dy="2"/>
<feGaussianBlur stdDeviation="2"/>
<feComposite in2="hardAlpha" operator="out"/>
<feColorMatrix type="matrix" values="0 0 0 0 0.00784314 0 0 0 0 0.0156863 0 0 0 0 0.0235294 0 0 0 0.5 0"/>
<feBlend mode="normal" in2="BackgroundImageFix" result="effect1_dropShadow_175_628"/>
<feBlend mode="normal" in="SourceGraphic" in2="effect1_dropShadow_175_628" result="shape"/>
</filter>
<filter id="filter5_d_175_628" x="208" y="177.5" width="80" height="20" filterUnits="userSpaceOnUse" color-interpolation-filters="sRGB">
<feFlood flood-opacity="0" result="BackgroundImageFix"/>
<feColorMatrix in="SourceAlpha" type="matrix" values="0 0 0 0 0 0 0 0 0 0 0 0 0 0 0 0 0 0 127 0" result="hardAlpha"/>
<feOffset dy="2"/>
<feGaussianBlur stdDeviation="2"/>
<feComposite in2="hardAlpha" operator="out"/>
<feColorMatrix type="matrix" values="0 0 0 0 0.00784314 0 0 0 0 0.0156863 0 0 0 0 0.0235294 0 0 0 0.5 0"/>
<feBlend mode="normal" in2="BackgroundImageFix" result="effect1_dropShadow_175_628"/>
<feBlend mode="normal" in="SourceGraphic" in2="effect1_dropShadow_175_628" result="shape"/>
</filter>
<filter id="filter6_d_175_628" x="210.301" y="167" width="75.3984" height="16" filterUnits="userSpaceOnUse" color-interpolation-filters="sRGB">
<feFlood flood-opacity="0" result="BackgroundImageFix"/>
<feColorMatrix in="SourceAlpha" type="matrix" values="0 0 0 0 0 0 0 0 0 0 0 0 0 0 0 0 0 0 127 0" result="hardAlpha"/>
<feOffset dy="2"/>
<feGaussianBlur stdDeviation="2"/>
<feComposite in2="hardAlpha" operator="out"/>
<feColorMatrix type="matrix" values="0 0 0 0 0.00784314 0 0 0 0 0.0156863 0 0 0 0 0.0235294 0 0 0 0.5 0"/>
<feBlend mode="normal" in2="BackgroundImageFix" result="effect1_dropShadow_175_628"/>
<feBlend mode="normal" in="SourceGraphic" in2="effect1_dropShadow_175_628" result="shape"/>
</filter>
</defs>
</svg>
