<svg width="14" height="30" viewBox="0 0 14 30" fill="none" xmlns="http://www.w3.org/2000/svg">
<path fill-rule="evenodd" clip-rule="evenodd" d="M0.5 3C0.5 1.61929 1.61929 0.5 3 0.5H12.5C13.0523 0.5 13.5 0.947716 13.5 1.5V13V16.5C13.5 17.0523 13.0523 17.5 12.5 17.5H6V16.5H12.5V13.5H3C2.17157 13.5 1.5 14.1716 1.5 15C1.5 15.8284 2.17157 16.5 3 16.5V17.5C1.61929 17.5 0.5 16.3807 0.5 15V13V3ZM12.5 1.5V12.5H3C2.4372 12.5 1.91783 12.686 1.5 12.9998V3C1.5 2.17157 2.17157 1.5 3 1.5H12.5ZM5.5 18.3964V16.25C5.5 16.1119 5.38807 16 5.25 16H3.75C3.61193 16 3.5 16.1119 3.5 16.25V18.3964C3.5 18.6192 3.76929 18.7307 3.92678 18.5732L4.32322 18.1768C4.42085 18.0791 4.57915 18.0791 4.67678 18.1768L5.07322 18.5732C5.23071 18.7307 5.5 18.6192 5.5 18.3964ZM5.5 21.75V23.8964C5.5 24.1192 5.23071 24.2307 5.07322 24.0732L4.67678 23.6768C4.57915 23.5791 4.42085 23.5791 4.32322 23.6768L3.92678 24.0732C3.76929 24.2307 3.5 24.1192 3.5 23.8964V21.75C3.5 21.6119 3.61193 21.5 3.75 21.5H5.25C5.38807 21.5 5.5 21.6119 5.5 21.75ZM5.5 29.3964V27.25C5.5 27.1119 5.38807 27 5.25 27H3.75C3.61193 27 3.5 27.1119 3.5 27.25V29.3964C3.5 29.6192 3.76929 29.7307 3.92678 29.5732L4.32322 29.1768C4.42085 29.0791 4.57915 29.0791 4.67678 29.1768L5.07322 29.5732C5.23071 29.7307 5.5 29.6192 5.5 29.3964ZM3 19C2.17157 19 1.5 19.6716 1.5 20.5C1.5 21.3284 2.17157 22 3 22V23C1.61929 23 0.5 21.8807 0.5 20.5V18C0.5 17.7239 0.723858 17.5 1 17.5C1.27614 17.5 1.5 17.7239 1.5 18V18.4998C1.91783 18.186 2.4372 18 3 18V19ZM6 18H12.5C13.0523 18 13.5 18.4477 13.5 19V22C13.5 22.5523 13.0523 23 12.5 23H6V22H12.5V19H6V18ZM1.5 26C1.5 25.1716 2.17157 24.5 3 24.5V23.5C2.4372 23.5 1.91783 23.686 1.5 23.9998V23.5C1.5 23.2239 1.27614 23 1 23C0.723858 23 0.5 23.2239 0.5 23.5V26C0.5 27.3807 1.61929 28.5 3 28.5V27.5C2.17157 27.5 1.5 26.8284 1.5 26ZM12.5 23.5H6V24.5H12.5V27.5H6V28.5H12.5C13.0523 28.5 13.5 28.0523 13.5 27.5V24.5C13.5 23.9477 13.0523 23.5 12.5 23.5Z" fill="#F9FBFD"/>
</svg>
