<svg width="24" height="28" viewBox="0 0 24 28" fill="none" xmlns="http://www.w3.org/2000/svg">
<path d="M11.1968 0.658042C11.4682 -0.219347 12.5318 -0.219347 12.8032 0.658041L15.0781 8.01324C15.423 9.12839 16.1757 10.0064 17.1315 10.4088L23.436 13.063C24.188 13.3796 24.188 14.6204 23.436 14.937L17.1315 17.5912C16.1757 17.9936 15.423 18.8716 15.0781 19.9868L12.8032 27.342C12.5318 28.2193 11.4682 28.2193 11.1968 27.342L8.92187 19.9868C8.57696 18.8716 7.82434 17.9936 6.86849 17.5912L0.564036 14.937C-0.188012 14.6204 -0.188012 13.3796 0.564035 13.063L6.86849 10.4088C7.82434 10.0064 8.57696 9.12839 8.92187 8.01324L11.1968 0.658042Z" fill="#020406"/>
</svg>
