<svg width="32" height="32" viewBox="0 0 32 32" fill="none" xmlns="http://www.w3.org/2000/svg">
<path d="M14.9291 0.752048C15.2909 -0.250682 16.7091 -0.250683 17.0709 0.752047L20.1042 9.15799C20.5641 10.4324 21.5676 11.4359 22.842 11.8958L31.248 14.9291C32.2507 15.2909 32.2507 16.7091 31.248 17.0709L22.842 20.1042C21.5676 20.5641 20.5641 21.5676 20.1042 22.842L17.0709 31.248C16.7091 32.2507 15.2909 32.2507 14.9291 31.248L11.8958 22.842C11.4359 21.5676 10.4324 20.5641 9.15799 20.1042L0.752048 17.0709C-0.250682 16.7091 -0.250683 15.2909 0.752047 14.9291L9.15799 11.8958C10.4324 11.4359 11.4359 10.4324 11.8958 9.15799L14.9291 0.752048Z" fill="#D9DBDD"/>
</svg>
